<?xml version="1.0" standalone="no"?>
<!DOCTYPE svg PUBLIC "-//W3C//DTD SVG 20010904//EN"
 "http://www.w3.org/TR/2001/REC-SVG-20010904/DTD/svg10.dtd">
<svg version="1.0" xmlns="http://www.w3.org/2000/svg"
 width="720.000000pt" height="720.000000pt" viewBox="0 0 720.000000 720.000000"
 preserveAspectRatio="xMidYMid meet">
<g transform="translate(0.000000,720.000000) scale(0.100000,-0.100000)"
fill="#785700" stroke="none">
<path d="M4424 6855 c-7 -18 3 -35 21 -35 15 0 24 19 18 38 -6 17 -32 15 -39
-3z"/>
<path d="M3765 6820 c-8 -13 21 -66 40 -73 16 -7 21 -57 5 -57 -5 0 -29 10
-54 21 -24 12 -51 19 -61 16 -27 -11 -14 -50 21 -66 17 -7 36 -22 43 -33 11
-18 9 -23 -16 -44 -23 -19 -26 -26 -17 -41 6 -10 18 -19 27 -21 18 -4 97 44
97 58 0 6 18 10 40 10 53 0 51 -16 -6 -69 -36 -33 -44 -45 -33 -52 21 -13 39
-11 56 6 12 12 18 13 29 4 16 -13 100 -4 109 12 7 11 -36 29 -71 29 -25 0 -25
0 -2 30 27 37 46 35 67 -6 9 -17 28 -36 44 -42 21 -8 27 -17 27 -40 0 -16 9
-37 20 -47 13 -12 20 -31 20 -57 0 -21 6 -49 14 -61 31 -49 24 -135 -7 -94
-18 24 -93 48 -194 62 -84 12 -176 38 -196 55 -37 32 162 27 270 -6 57 -18 86
-13 81 13 -6 32 -68 55 -168 63 -52 4 -108 13 -123 20 -23 11 -39 11 -87 2
-38 -8 -66 -9 -82 -3 -37 14 -171 16 -276 3 -56 -7 -102 -7 -115 -2 -12 5 -43
12 -69 15 -41 5 -48 10 -48 28 0 27 -10 42 -32 50 -28 10 -22 23 27 58 33 24
45 39 43 54 -4 24 -50 25 -78 0 -31 -28 -80 -13 -80 26 0 9 10 23 23 32 18 12
20 18 11 34 -22 35 -104 6 -104 -37 0 -25 -21 -40 -56 -40 -17 0 -42 -8 -55
-19 -13 -10 -34 -22 -47 -25 -30 -10 -85 -44 -125 -78 -24 -20 -29 -30 -21
-38 14 -14 48 1 58 25 3 8 14 15 25 15 10 0 38 9 62 20 58 26 135 27 143 2 7
-22 97 -56 126 -47 15 5 20 2 20 -13 0 -11 12 -29 27 -40 25 -18 26 -20 7 -29
-10 -6 -45 -13 -76 -17 -51 -5 -58 -4 -68 14 -14 26 -24 25 -54 -5 -16 -16
-37 -25 -58 -25 -18 -1 -44 -7 -58 -15 -65 -37 -67 1 -2 61 41 39 52 44 87 42
37 -3 40 -1 43 25 3 28 3 28 -45 21 -26 -3 -55 -13 -64 -20 -8 -8 -18 -14 -22
-14 -9 0 -96 -60 -102 -71 -11 -17 -35 -9 -45 16 -5 14 -13 25 -17 25 -16 -1
-42 -49 -57 -105 -8 -32 -19 -61 -24 -64 -5 -3 -12 -16 -16 -28 -6 -18 -14
-21 -50 -20 -30 1 -50 -4 -63 -16 -11 -9 -29 -17 -40 -17 -11 0 -32 -9 -46
-20 -14 -11 -32 -20 -40 -20 -8 0 -26 -9 -40 -20 -14 -11 -32 -20 -40 -20 -7
0 -22 -9 -32 -20 -10 -11 -27 -20 -37 -20 -10 0 -21 -7 -24 -15 -3 -8 -21 -19
-40 -25 -19 -6 -34 -16 -34 -21 0 -5 -10 -14 -22 -20 -37 -17 -83 -44 -99 -57
-7 -7 -32 -26 -54 -42 -119 -90 -149 -116 -313 -279 -140 -139 -232 -240 -232
-256 0 -6 -25 -40 -63 -85 -16 -19 -33 -48 -52 -87 -8 -18 -20 -33 -25 -33 -5
0 -16 -15 -25 -32 -15 -34 -26 -53 -57 -100 -10 -15 -18 -33 -18 -41 0 -8 -9
-22 -20 -32 -11 -10 -20 -26 -20 -35 0 -9 -9 -27 -20 -40 -11 -13 -20 -34 -20
-47 0 -13 -9 -31 -20 -40 -11 -10 -20 -27 -20 -38 0 -11 -9 -37 -20 -58 -11
-20 -20 -47 -20 -59 0 -13 -9 -36 -20 -53 -11 -16 -20 -40 -20 -52 0 -12 -9
-45 -20 -73 -11 -28 -20 -68 -20 -88 0 -21 -7 -48 -16 -60 -10 -14 -17 -55
-21 -115 -3 -53 -12 -105 -21 -122 -25 -46 -24 -623 1 -715 9 -36 17 -86 17
-111 0 -26 9 -66 20 -90 11 -24 20 -63 20 -85 0 -23 9 -61 20 -85 11 -24 20
-55 20 -69 0 -14 9 -38 20 -55 11 -16 20 -41 20 -55 0 -14 9 -38 20 -55 11
-16 20 -36 20 -44 0 -15 50 -123 61 -131 3 -3 12 -22 18 -43 7 -20 16 -37 21
-37 5 0 11 -13 15 -30 4 -16 11 -33 17 -36 5 -4 16 -21 24 -38 8 -17 28 -51
44 -76 16 -25 34 -55 40 -67 5 -13 13 -23 17 -23 7 0 20 -18 59 -82 10 -17 65
-85 94 -117 8 -9 40 -45 70 -81 72 -83 116 -127 219 -219 47 -42 93 -83 102
-91 9 -8 26 -22 38 -30 27 -18 90 -64 111 -82 15 -14 23 -19 86 -56 22 -12 51
-30 66 -40 65 -42 138 -82 162 -88 22 -5 26 -12 26 -45 0 -32 5 -42 29 -57 46
-28 81 -75 125 -169 8 -18 20 -33 25 -33 6 0 11 -6 11 -12 0 -14 198 -210 237
-235 37 -24 55 -10 51 39 -3 40 -1 43 24 46 23 3 39 -8 91 -62 34 -36 67 -66
73 -66 6 0 19 -9 29 -20 10 -11 25 -20 34 -20 9 0 38 -8 64 -17 38 -14 54 -15
77 -6 34 13 76 -1 85 -27 6 -15 85 -70 101 -70 17 0 57 -100 59 -150 1 -27 8
-57 16 -66 7 -9 18 -26 24 -38 9 -18 20 -21 82 -24 61 -2 73 -6 78 -22 8 -24
35 -25 81 -4 73 35 71 80 -9 139 -71 53 -77 62 -77 117 0 26 -11 81 -25 123
-32 95 -24 121 33 110 171 -31 242 -5 330 122 12 18 22 36 22 42 0 13 130 131
145 131 7 0 24 -11 39 -25 22 -20 26 -32 26 -80 0 -48 2 -55 20 -55 23 0 60
33 60 55 0 46 93 179 137 196 13 5 23 15 23 24 0 17 9 19 42 6 16 -6 29 -25
42 -60 17 -48 17 -54 2 -91 -28 -70 -16 -101 32 -81 22 9 36 27 56 74 14 34
26 67 26 72 0 6 16 35 36 65 20 30 50 81 66 112 23 46 34 58 61 64 17 3 43 15
56 25 13 11 27 19 32 19 4 0 38 20 76 45 37 25 77 51 87 58 10 6 31 22 46 35
15 12 31 22 34 22 30 0 466 399 466 425 0 5 7 15 15 24 83 91 106 119 111 134
3 9 9 17 14 17 5 0 15 11 22 24 7 13 26 43 43 67 37 54 44 66 73 115 12 22 26
46 31 54 5 8 12 22 16 30 3 8 17 33 30 55 14 22 30 51 36 65 6 14 19 42 30 62
10 20 19 43 19 50 0 7 9 30 20 51 11 20 20 43 20 50 0 7 9 29 20 50 11 20 20
47 20 59 1 13 9 41 20 63 11 22 19 54 20 71 0 17 9 51 19 75 11 24 22 80 26
124 4 43 15 95 23 115 25 55 22 744 -2 814 -10 26 -21 83 -26 125 -4 42 -15
90 -24 106 -9 17 -16 44 -16 60 0 17 -9 48 -20 70 -11 22 -20 51 -20 65 0 14
-9 39 -20 55 -11 17 -20 42 -20 56 0 15 -7 32 -15 39 -8 7 -17 28 -21 49 -4
20 -15 47 -25 60 -11 13 -19 31 -19 41 0 9 -9 27 -20 40 -11 13 -20 29 -20 37
0 8 -8 26 -18 41 -30 46 -42 66 -57 98 -7 17 -21 36 -29 44 -9 7 -16 18 -16
26 0 7 -6 19 -13 26 -6 7 -34 47 -61 88 -28 41 -55 80 -61 85 -7 6 -33 37 -60
70 -26 33 -53 65 -59 70 -6 6 -24 28 -41 50 -67 90 -313 306 -455 400 -25 17
-47 33 -48 38 -2 4 -18 14 -35 23 -46 21 -74 38 -95 57 -10 10 -25 17 -34 17
-8 0 -25 9 -38 20 -13 11 -31 20 -40 20 -9 0 -25 9 -35 20 -10 11 -28 20 -40
20 -12 0 -30 8 -39 19 -9 10 -31 21 -47 25 -17 3 -37 13 -45 21 -9 8 -25 15
-38 15 -12 0 -31 7 -42 15 -10 8 -30 15 -44 15 -37 0 -67 25 -75 63 -4 17 -13
41 -20 53 -7 11 -25 56 -40 100 -15 43 -35 86 -45 94 -11 8 -20 31 -22 50 -3
31 -7 35 -33 38 -16 2 -39 12 -50 22 -11 10 -39 21 -62 25 -23 3 -44 13 -47
22 -5 11 -15 13 -45 8 -36 -6 -40 -4 -43 17 -2 18 -8 22 -29 20 -17 -1 -34 7
-54 28 -29 30 -77 41 -90 20z m251 -134 c3 -8 18 -18 34 -21 16 -3 34 -13 41
-21 6 -8 21 -14 33 -14 30 0 41 -10 61 -54 13 -27 16 -43 8 -54 -16 -27 -33
-25 -44 5 -6 16 -36 47 -70 71 -32 24 -59 50 -59 58 0 8 -6 14 -14 14 -7 0
-19 7 -26 15 -10 13 -9 15 9 15 12 0 24 -6 27 -14z m-78 -49 c4 -18 -14 -22
-37 -8 -7 5 -10 14 -6 20 10 17 39 9 43 -12z m-957 -283 c12 -14 30 -16 121
-12 84 4 110 3 119 -8 13 -16 19 -13 -86 -42 -38 -11 -100 -23 -137 -26 -37
-3 -81 -12 -97 -20 -16 -9 -48 -18 -72 -22 -70 -11 -79 -18 -66 -55 11 -28 15
-30 46 -25 18 3 42 13 53 23 11 10 32 16 50 15 17 -1 41 4 53 12 19 13 48 20
67 17 4 0 -8 -17 -27 -37 -19 -20 -35 -42 -35 -50 0 -8 -7 -14 -15 -14 -8 0
-15 -8 -15 -19 0 -10 -9 -29 -19 -43 -11 -13 -22 -41 -26 -61 -9 -47 -20 -46
-70 1 -22 21 -60 44 -84 52 -43 14 -43 14 -37 55 3 24 1 46 -5 52 -8 8 -6 19
6 37 10 14 14 33 11 42 -9 23 11 81 30 88 8 3 25 -1 37 -9 18 -12 35 -13 81
-5 64 10 86 23 86 51 0 23 13 24 31 3z m679 -44 c25 -7 52 -19 60 -26 8 -6 26
-15 40 -19 14 -4 37 -18 52 -31 16 -12 36 -25 47 -29 40 -12 132 -147 174
-255 27 -72 30 -225 5 -285 -9 -22 -19 -47 -23 -55 -8 -20 -28 -55 -42 -71
-16 -21 -24 -67 -13 -74 24 -15 7 -24 -36 -18 -46 6 -46 6 -33 -17 12 -19 12
-23 0 -28 -7 -2 -22 -13 -33 -24 -29 -29 -62 -20 -66 17 -1 17 -7 39 -13 51
-6 12 -9 32 -7 45 4 33 49 34 63 2 14 -32 25 -29 25 6 0 24 -5 31 -29 36 -60
13 -96 87 -110 230 -9 88 -29 125 -86 166 -25 18 -45 36 -45 41 0 4 -21 18
-47 30 -74 35 -291 34 -348 -2 -46 -28 -94 -74 -120 -114 -22 -34 -27 -232 -7
-279 10 -23 9 -37 -3 -73 -8 -24 -12 -56 -9 -72 5 -22 0 -35 -20 -57 -14 -15
-26 -38 -26 -50 0 -54 -52 -58 -87 -7 -12 18 -37 43 -55 55 -22 15 -34 32 -36
51 -3 27 -2 28 29 21 19 -4 40 -12 49 -17 10 -6 27 -4 53 6 44 19 49 51 16
105 -50 82 -79 255 -52 306 6 11 16 46 23 77 6 32 16 60 21 64 5 3 15 20 23
37 7 18 29 50 49 71 20 22 38 42 39 46 9 21 146 101 243 141 66 28 243 27 335
-1z m680 -79 c5 -11 10 -28 10 -38 0 -11 5 -24 11 -30 14 -14 69 -148 69 -168
0 -7 6 -20 13 -27 15 -14 24 -45 36 -123 9 -56 5 -75 -15 -75 -18 0 -36 -36
-32 -66 2 -20 12 -29 43 -40 57 -20 109 -9 156 33 44 40 47 54 19 90 -11 14
-20 31 -20 38 0 18 -65 28 -91 14 -17 -9 -23 -8 -30 2 -19 31 -9 47 36 58 109
28 187 -21 198 -125 5 -44 3 -66 -8 -84 -8 -14 -18 -33 -21 -42 -8 -21 -55
-51 -107 -68 -44 -14 -91 0 -108 31 -5 11 -21 19 -35 19 -17 0 -28 7 -31 20
-8 30 -41 25 -50 -7 -3 -16 -17 -49 -30 -74 -26 -54 -27 -59 -11 -59 7 0 22
-12 33 -26 19 -24 24 -26 56 -16 69 21 117 32 147 32 16 0 58 9 93 19 35 10
98 22 139 26 41 4 98 12 125 20 30 7 91 11 153 9 117 -3 166 -20 231 -82 21
-21 61 -59 89 -85 27 -26 52 -57 55 -68 8 -28 -14 -36 -31 -11 -8 12 -19 22
-24 22 -5 0 -17 8 -26 19 -37 41 -120 64 -212 58 -96 -6 -153 -27 -216 -81
-42 -36 -94 -123 -94 -159 0 -12 -7 -31 -15 -41 -38 -50 3 -211 77 -303 34
-43 102 -93 142 -104 53 -16 80 -43 78 -80 -7 -171 -9 -208 -16 -232 -6 -18
-5 -32 3 -40 17 -17 13 -41 -11 -66 -20 -23 -22 -23 -35 -5 -7 10 -13 29 -13
42 0 27 -105 244 -146 302 -13 19 -30 44 -37 54 -28 45 -143 184 -178 217 -22
20 -39 40 -39 45 -1 14 -235 197 -271 212 -17 7 -38 20 -46 28 -8 7 -20 14
-27 14 -7 0 -25 11 -41 25 -19 19 -36 25 -58 23 -43 -4 -43 12 3 73 22 29 40
57 40 61 0 5 9 8 20 8 25 0 27 33 4 52 -9 7 -36 32 -61 55 -24 23 -53 45 -63
48 -17 5 -50 56 -50 77 0 4 14 8 30 8 17 0 30 5 30 12 0 13 11 26 80 96 34 34
41 48 36 68 -4 13 -10 24 -15 24 -5 0 -12 15 -16 33 -4 17 -15 57 -25 87 -10
30 -20 97 -23 147 -5 87 -4 94 16 108 32 22 94 20 107 -4z m-338 -38 c26 -25
38 -63 20 -63 -13 0 -72 77 -65 84 10 10 15 7 45 -21z m106 -30 c2 -8 -6 -13
-22 -13 -25 0 -33 10 -19 24 10 10 36 3 41 -11z m392 -2 c19 -10 49 -21 67
-25 17 -4 37 -14 44 -22 6 -8 19 -14 29 -14 9 0 29 -9 43 -20 14 -11 30 -20
36 -20 5 0 26 -10 45 -22 19 -13 60 -39 92 -58 116 -70 255 -166 306 -212 20
-18 56 -49 80 -68 53 -44 166 -158 238 -240 30 -35 66 -75 79 -89 13 -14 35
-44 50 -66 14 -22 28 -42 31 -45 15 -14 130 -193 163 -255 61 -115 137 -272
137 -285 0 -7 7 -24 15 -38 18 -33 53 -134 64 -183 4 -19 12 -42 17 -50 8 -13
29 -98 54 -219 67 -329 60 -845 -15 -1090 -8 -25 -17 -65 -21 -90 -3 -25 -13
-57 -20 -72 -8 -15 -14 -37 -14 -49 0 -12 -9 -40 -19 -63 -11 -23 -32 -72 -46
-111 -55 -144 -168 -372 -203 -407 -6 -6 -12 -15 -12 -20 0 -17 -129 -194
-216 -298 -45 -53 -148 -162 -199 -211 -58 -55 -320 -269 -329 -269 -3 0 -26
-15 -52 -32 -46 -32 -144 -90 -211 -124 -17 -10 -34 -26 -36 -36 -7 -26 -44
-8 -57 28 -6 14 -33 48 -61 77 -58 58 -89 103 -89 129 0 12 -13 21 -40 28 -22
6 -40 16 -40 22 0 6 -2 9 -5 6 -6 -6 23 -65 36 -73 5 -4 9 -19 9 -35 0 -21 6
-29 25 -34 14 -4 25 -13 25 -21 0 -8 9 -19 20 -25 11 -6 20 -16 20 -23 0 -7 9
-18 20 -25 11 -7 20 -23 20 -37 0 -14 9 -34 20 -45 24 -24 25 -39 6 -66 -14
-18 -15 -16 -22 24 -6 38 -9 42 -35 42 -37 0 -38 -20 -4 -78 24 -42 25 -62 4
-62 -5 0 -9 6 -9 13 0 7 -13 26 -28 43 -32 34 -56 82 -53 105 1 9 -5 19 -14
22 -8 4 -15 12 -15 20 0 7 -18 38 -40 67 -22 29 -40 59 -40 66 0 8 -9 18 -20
24 -11 6 -20 17 -20 25 0 8 -11 26 -25 41 -14 15 -25 33 -25 39 0 7 -6 15 -13
18 -7 2 -23 38 -36 78 -12 41 -29 94 -38 119 -20 60 -44 211 -35 224 3 6 9 29
12 51 3 28 10 41 24 43 28 6 39 -13 42 -73 2 -30 9 -69 18 -87 8 -18 17 -46
21 -62 3 -15 25 -68 49 -117 24 -48 47 -100 50 -114 7 -26 20 -33 31 -15 17
27 57 8 125 -60 38 -38 70 -76 70 -82 1 -7 14 -28 30 -47 51 -60 83 -15 39 55
-17 28 -18 35 -6 40 9 3 17 25 21 55 4 30 13 52 21 56 8 3 15 18 15 34 0 15 7
32 16 37 29 16 45 81 27 108 -8 13 -19 24 -24 24 -5 0 -9 4 -9 10 0 22 -108
118 -152 134 -27 11 -48 26 -51 37 -3 11 -14 19 -25 19 -12 0 -29 14 -42 35
-12 19 -26 35 -31 35 -17 0 -59 52 -59 72 0 10 -10 22 -22 27 -14 5 -30 27
-41 54 -18 45 -18 45 12 90 73 107 102 217 66 247 -8 7 -15 17 -15 23 0 14
-51 90 -67 100 -7 4 -13 12 -13 18 0 10 -43 58 -192 215 -49 51 -88 100 -88
111 0 10 -7 27 -15 37 -8 11 -15 32 -15 48 0 17 -7 31 -19 38 -28 14 -30 13
-42 -17 -10 -27 -11 -28 -25 -8 -13 18 -13 21 6 29 12 5 20 19 20 33 0 25 -11
29 -41 12 -25 -13 -69 12 -69 39 0 37 116 130 136 109 3 -3 -4 -24 -16 -46
-27 -54 -15 -84 33 -79 28 3 32 0 35 -25 2 -17 12 -32 25 -38 13 -6 31 -27 42
-47 21 -37 134 -137 170 -148 11 -4 27 -12 35 -19 8 -7 32 -18 52 -24 20 -7
42 -19 48 -27 7 -7 21 -14 31 -14 20 0 104 -42 129 -65 9 -8 23 -15 31 -15 15
0 74 -50 154 -129 70 -70 76 -78 78 -109 2 -24 -2 -27 -31 -30 -23 -2 -36 -11
-46 -30 -23 -45 -141 -153 -300 -275 -42 -32 -46 -53 -12 -68 20 -10 33 -3
112 57 89 67 264 233 264 249 0 14 32 45 46 45 7 0 15 -18 19 -40 4 -27 12
-40 22 -40 33 0 0 200 -47 282 -6 10 -10 24 -10 31 0 16 -86 99 -120 116 -14
6 -50 25 -80 41 -30 16 -62 30 -70 30 -45 0 -164 60 -174 87 -11 27 7 33 64
22 30 -5 79 -14 109 -20 42 -7 65 -6 106 6 29 8 77 15 107 15 107 0 300 -125
331 -215 6 -16 17 -36 24 -44 9 -8 13 -29 11 -54 -3 -35 -8 -43 -41 -60 -21
-11 -41 -27 -45 -35 -7 -19 -39 -52 -51 -52 -5 0 -11 9 -14 21 -13 49 -32 11
-39 -77 -6 -61 -13 -93 -23 -100 -8 -6 -15 -20 -15 -32 0 -11 -20 -45 -45 -75
-25 -31 -45 -60 -45 -65 0 -11 -38 -44 -141 -122 -112 -86 -123 -96 -115 -108
13 -22 51 -12 90 23 22 19 45 35 51 35 7 0 22 9 35 20 13 11 27 20 32 20 9 0
44 38 78 83 53 71 115 127 139 127 15 0 32 5 37 10 6 6 33 13 60 16 70 8 132
-39 158 -120 4 -11 12 -16 21 -12 10 4 19 -3 25 -19 6 -14 17 -25 28 -25 19 0
22 -21 33 -195 2 -38 -16 -137 -27 -146 -8 -6 -14 -20 -14 -31 0 -19 -60 -82
-208 -221 -34 -31 -67 -57 -72 -57 -6 0 -13 -7 -16 -15 -4 -8 -13 -15 -21 -15
-18 0 -10 45 11 70 15 17 36 96 36 134 0 61 -50 153 -113 210 -34 31 -72 66
-84 77 -20 19 -28 20 -100 12 -88 -9 -99 -21 -58 -66 34 -36 80 -37 89 -3 8
34 37 42 58 16 27 -34 24 -70 -6 -70 -36 0 -39 -14 -15 -55 21 -34 23 -36 64
-29 71 10 70 -34 -2 -83 -50 -34 -78 -69 -85 -106 -7 -36 8 -44 31 -16 24 30
51 19 51 -19 0 -37 -41 -82 -92 -103 -22 -8 -39 -18 -39 -22 1 -4 1 -16 1 -27
0 -12 9 -24 23 -29 19 -8 20 -10 5 -16 -9 -3 -19 -17 -22 -31 -4 -13 -13 -24
-21 -24 -8 0 -15 -7 -15 -15 0 -19 24 -20 39 -1 7 8 23 17 36 20 14 4 61 31
105 61 45 30 84 55 87 55 4 0 15 7 25 17 10 9 27 21 37 27 39 23 133 90 168
120 67 57 303 295 303 305 0 5 6 11 13 14 7 3 26 24 42 48 16 24 35 51 42 59
40 46 63 79 63 88 0 5 6 15 14 21 8 7 27 36 41 64 15 29 33 59 41 67 18 21 64
108 64 121 0 6 9 22 20 36 11 14 20 32 20 40 0 8 9 26 20 40 11 14 20 36 20
48 0 12 7 28 15 35 8 7 17 28 21 49 4 20 15 50 25 67 11 17 19 43 19 56 0 14
6 31 14 37 8 7 18 38 21 69 4 31 13 66 20 77 7 11 15 50 19 88 4 37 14 79 21
95 20 43 30 225 27 511 -2 228 -5 277 -23 350 -12 47 -23 111 -26 141 -3 30
-12 65 -19 77 -8 12 -14 39 -14 59 0 21 -8 56 -19 78 -20 44 -47 121 -61 174
-4 19 -15 41 -24 51 -9 10 -16 24 -16 32 0 8 -9 31 -20 52 -11 20 -20 43 -20
51 0 8 -6 21 -13 28 -7 7 -28 44 -47 81 -19 38 -41 73 -47 79 -7 6 -13 16 -13
22 0 6 -18 36 -40 66 -21 30 -54 76 -71 103 -18 26 -36 47 -41 47 -4 0 -8 5
-8 11 0 6 -11 25 -25 43 -14 17 -33 41 -42 54 -40 52 -62 77 -145 163 -48 49
-90 89 -94 89 -4 0 -24 17 -45 38 -21 20 -49 45 -61 54 -13 10 -49 38 -80 63
-31 25 -61 45 -66 45 -5 0 -17 9 -27 20 -10 11 -23 20 -30 20 -7 0 -20 9 -30
20 -10 11 -22 20 -27 20 -4 0 -30 15 -56 34 -27 19 -77 48 -113 66 -64 32
-111 56 -139 71 -51 28 -95 49 -105 49 -18 0 -56 31 -50 41 10 15 48 10 85
-10z m-2000 -21 c0 -24 -5 -31 -27 -36 -32 -7 -42 -10 -63 -23 -8 -5 -44 -23
-80 -41 -91 -46 -151 -81 -231 -135 -24 -16 -51 -34 -60 -40 -64 -40 -197
-142 -235 -179 -11 -12 -42 -39 -69 -61 -90 -75 -133 -120 -222 -233 -134
-171 -167 -215 -175 -234 -4 -10 -12 -18 -18 -18 -5 0 -10 -6 -10 -14 0 -8
-10 -27 -22 -43 -33 -41 -47 -63 -65 -105 -9 -21 -20 -38 -25 -38 -4 0 -8 -4
-8 -9 0 -6 -17 -47 -39 -93 -80 -172 -91 -197 -91 -217 0 -11 -9 -40 -19 -63
-41 -92 -52 -126 -61 -178 -4 -30 -17 -100 -28 -155 -44 -216 -47 -248 -47
-505 0 -261 2 -281 50 -520 9 -41 22 -110 30 -153 8 -44 18 -84 24 -90 5 -7
14 -28 19 -47 6 -19 22 -66 37 -105 14 -38 30 -84 36 -101 5 -18 16 -37 24
-44 8 -7 15 -23 15 -36 0 -13 9 -33 20 -44 11 -11 20 -24 20 -29 0 -15 52
-113 87 -163 18 -26 33 -54 33 -63 0 -8 9 -19 20 -25 11 -6 20 -17 20 -24 0
-7 9 -21 20 -31 11 -10 20 -22 20 -28 0 -27 284 -338 410 -450 65 -57 129
-107 138 -107 5 0 12 -7 16 -15 3 -8 15 -15 26 -15 11 0 30 -11 42 -25 12 -14
25 -25 29 -25 7 0 36 -18 99 -61 18 -12 56 -33 90 -51 14 -7 33 -21 43 -31 21
-21 72 -19 72 3 0 8 -10 19 -22 26 -13 6 -31 18 -40 26 -10 8 -27 18 -37 22
-39 14 -1 29 51 21 63 -11 74 -9 100 21 16 17 23 38 23 63 0 22 6 44 15 51 12
10 11 16 -7 41 -12 16 -27 29 -34 29 -27 0 -83 -46 -89 -73 -22 -94 -151 -55
-163 49 -5 51 11 64 42 35 31 -29 46 -26 46 9 0 46 -54 99 -110 108 -43 7 -45
9 -42 37 5 39 10 43 54 38 24 -3 49 -17 72 -39 44 -43 66 -44 66 -4 0 24 11
39 61 80 33 27 66 50 73 50 7 0 23 12 37 26 13 15 39 33 57 40 40 18 41 32 2
45 -16 6 -30 17 -30 25 0 7 -11 16 -25 20 -14 3 -25 12 -25 19 0 8 -10 17 -22
21 -13 4 -35 16 -49 27 -27 19 -49 17 -49 -7 0 -19 42 -54 75 -62 17 -4 36
-16 43 -26 7 -10 20 -18 28 -18 8 0 14 -9 14 -20 0 -19 -4 -20 -37 -14 -21 4
-51 13 -67 21 -22 12 -34 12 -56 3 -38 -16 -42 -31 -23 -78 14 -38 14 -42 -3
-66 -11 -14 -24 -26 -31 -26 -13 0 -63 61 -87 108 -15 29 -46 45 -46 23 0 -5
-20 -31 -45 -58 -58 -65 -79 -121 -77 -201 2 -67 33 -156 58 -166 19 -7 18
-26 -1 -26 -24 0 -64 29 -132 95 -34 33 -81 76 -103 95 -50 43 -110 129 -110
158 0 11 -4 23 -9 26 -11 7 -22 84 -21 141 0 22 1 53 1 68 0 35 46 130 59 122
6 -3 10 -24 10 -45 0 -76 90 -142 174 -126 63 12 135 127 95 151 -5 4 -14 18
-19 31 -19 50 -113 56 -144 9 -22 -34 -20 -61 6 -79 36 -25 50 -20 46 17 -3
28 0 32 22 32 16 0 29 -9 39 -26 14 -24 13 -28 -12 -55 -57 -61 -146 -23 -167
71 -16 69 7 114 74 148 76 39 130 37 196 -8 59 -40 90 -45 90 -16 0 11 -4 23
-10 26 -5 3 -10 15 -10 27 0 19 -4 20 -41 14 -35 -6 -44 -3 -56 14 -11 15 -25
20 -59 20 -54 0 -64 17 -38 65 18 34 18 35 -4 58 -12 13 -22 32 -22 43 0 23
-35 51 -99 79 -43 19 -43 19 -72 -15 -42 -52 -40 -99 7 -135 31 -24 39 -26 61
-16 35 16 28 54 -12 61 -52 9 -43 59 11 60 24 0 58 -34 73 -73 16 -42 -1 -103
-38 -135 -17 -15 -43 -38 -58 -51 -60 -51 -113 -122 -113 -151 0 -16 -6 -30
-12 -32 -7 -3 -15 -30 -18 -64 -7 -83 -30 -80 -47 6 -32 156 -36 254 -15 322
11 35 24 78 27 96 4 18 13 45 21 60 8 15 14 37 14 48 0 12 9 33 20 47 11 14
20 35 20 46 0 11 9 26 20 33 11 7 20 19 20 26 0 7 9 30 20 52 11 22 20 55 20
75 0 21 6 38 14 41 8 3 17 22 21 42 4 20 13 44 20 52 7 8 15 26 17 40 2 17 16
32 46 49 44 24 44 24 37 80 -4 31 -11 63 -15 71 -9 16 -17 111 -25 275 -7 165
27 407 76 540 61 166 136 324 189 395 22 30 48 72 57 93 10 23 23 37 35 37 11
0 18 7 18 20 0 11 7 20 15 20 8 0 15 -7 15 -15 0 -9 -7 -18 -15 -21 -23 -9
-18 -73 10 -123 30 -52 31 -61 4 -61 -26 0 -79 -58 -79 -87 0 -31 23 -29 52 5
44 51 71 62 159 62 97 0 138 19 231 106 38 37 65 54 82 54 31 0 35 -29 9 -56
-49 -48 -64 -77 -48 -94 14 -15 14 -21 0 -53 -8 -20 -15 -45 -15 -55 0 -22
-79 -102 -135 -137 -53 -32 -83 -32 -95 1 -14 37 -13 43 15 50 43 11 25 44
-23 44 -23 0 -72 -54 -72 -79 0 -12 15 -38 34 -59 47 -51 110 -50 185 3 50 34
81 44 81 26 0 -6 -4 -12 -9 -15 -24 -15 -61 -108 -61 -153 0 -41 5 -53 36 -85
40 -43 68 -47 101 -16 34 32 30 58 -9 58 -32 0 -78 33 -78 56 0 6 7 17 15 24
8 7 17 27 21 45 8 47 79 117 154 152 48 24 63 27 67 17 6 -15 53 -19 53 -5 0
10 65 51 81 51 22 0 -6 -47 -55 -92 -28 -27 -54 -48 -58 -48 -4 0 -10 -9 -13
-20 -3 -11 -11 -20 -17 -20 -6 0 -22 -12 -35 -27 -21 -22 -24 -33 -20 -68 6
-42 35 -107 51 -114 4 -2 16 -12 24 -22 18 -21 76 -26 87 -9 9 15 -14 40 -37
40 -29 0 -51 61 -42 118 6 40 16 55 65 102 124 118 196 169 239 169 46 0 81
-35 105 -104 26 -74 25 -103 -6 -131 -26 -24 -24 -36 12 -68 31 -28 31 -28 -3
-57 -18 -15 -37 -28 -42 -29 -5 0 -26 -17 -47 -37 -56 -56 -78 -73 -98 -81
-41 -16 -191 -209 -191 -246 0 -35 -112 -206 -135 -206 -7 0 -15 -7 -19 -15
-3 -8 -12 -15 -19 -15 -8 0 -22 -9 -31 -19 -10 -11 -32 -23 -49 -27 -18 -4
-42 -14 -56 -22 -19 -13 -62 -16 -245 -17 -303 -1 -364 -22 -500 -165 -16 -16
-17 -23 -8 -32 10 -10 14 -8 19 10 3 13 16 24 32 28 29 7 86 29 116 47 11 6
67 15 125 19 58 4 132 10 165 14 66 7 140 -15 133 -38 -5 -13 -44 -14 -215 -7
-81 3 -120 -13 -64 -28 63 -16 35 -28 -91 -39 -94 -7 -132 -15 -146 -27 -10
-9 -26 -17 -36 -17 -9 0 -19 -7 -22 -15 -4 -10 -16 -14 -32 -13 -22 3 -30 -4
-49 -45 -17 -34 -21 -53 -14 -65 8 -14 10 -13 16 9 4 16 19 31 41 41 48 22 54
3 16 -53 -32 -46 -57 -123 -47 -139 11 -18 35 -11 44 13 5 13 16 29 25 36 9 7
16 25 16 39 0 28 25 62 46 62 7 0 19 9 26 19 8 11 34 28 58 39 25 11 63 28 85
38 33 15 69 19 206 21 160 2 241 12 254 33 3 6 21 10 39 10 18 0 45 9 59 20
14 11 30 20 35 20 5 0 36 27 68 59 69 71 84 70 84 -8 0 -35 6 -65 15 -77 31
-41 19 -81 -43 -142 -62 -61 -97 -91 -124 -107 -9 -5 -36 -24 -60 -40 -23 -17
-69 -43 -100 -58 -31 -16 -62 -35 -69 -43 -6 -8 -22 -14 -35 -14 -12 0 -26 -5
-29 -10 -4 -6 -23 -22 -43 -35 -51 -32 -117 -95 -139 -132 -10 -16 -26 -42
-36 -56 -10 -14 -16 -31 -12 -37 10 -17 25 -11 25 10 0 11 4 20 9 20 5 0 34
24 64 53 29 28 76 63 103 77 27 14 57 33 67 43 19 18 66 20 70 2 1 -5 -11 -16
-28 -25 -16 -8 -33 -19 -36 -24 -4 -5 -25 -20 -47 -35 -120 -79 -152 -104
-152 -122 0 -10 -6 -19 -13 -19 -7 0 -34 -20 -60 -44 -42 -41 -46 -48 -45 -93
1 -26 -2 -58 -6 -70 -7 -19 -4 -24 15 -32 22 -8 24 -13 21 -72 -3 -69 7 -95
32 -86 11 5 16 19 16 49 0 46 52 137 118 208 17 19 32 40 32 47 0 8 11 17 23
22 13 5 37 23 53 39 16 16 41 33 54 37 14 4 30 12 37 17 6 5 40 24 75 42 161
83 218 117 254 150 44 41 47 42 64 21 26 -32 -34 -275 -91 -365 -5 -8 -14 -26
-20 -40 -44 -104 -59 -117 -92 -77 -12 14 -35 33 -52 43 -62 36 -164 106 -176
120 -13 16 -65 19 -73 5 -4 -5 -3 -16 0 -25 8 -20 172 -146 190 -146 7 0 18
-10 25 -21 9 -18 17 -20 50 -15 25 4 39 2 39 -4 0 -19 -131 -140 -150 -140
-11 0 -27 -8 -37 -18 -10 -10 -33 -24 -50 -31 -43 -18 -42 -29 4 -33 63 -5 55
-32 -19 -67 -37 -18 -71 -43 -83 -61 -17 -26 -25 -29 -60 -27 -42 2 -57 -19
-37 -51 14 -20 90 7 115 40 12 16 34 30 53 34 20 4 36 14 39 25 4 10 15 19 25
19 10 0 41 23 69 52 47 48 49 53 35 69 -16 18 -12 39 9 39 15 0 97 81 97 96 0
19 61 47 74 34 19 -19 28 -10 22 22 -5 24 -2 34 14 45 11 8 20 20 20 28 0 12
18 53 42 95 5 8 17 33 28 55 26 55 37 24 20 -59 -7 -33 -15 -80 -17 -103 -3
-23 -11 -47 -19 -54 -8 -6 -14 -26 -14 -45 0 -21 -9 -42 -25 -60 -14 -15 -25
-32 -25 -39 0 -7 -6 -18 -14 -24 -7 -6 -11 -22 -9 -35 4 -17 -1 -28 -16 -38
-12 -7 -21 -23 -21 -35 0 -16 -6 -23 -18 -23 -10 0 -31 -19 -48 -42 -16 -23
-58 -72 -93 -108 -35 -36 -67 -75 -72 -87 -7 -19 -14 -22 -38 -17 -24 5 -30 2
-36 -17 -4 -13 -16 -35 -26 -48 -15 -19 -18 -34 -13 -77 6 -47 4 -55 -12 -61
-11 -4 -24 -14 -31 -23 -7 -10 -26 -23 -43 -30 -18 -7 -33 -22 -36 -36 -7 -27
-64 -36 -64 -10 0 13 -104 79 -167 105 -18 7 -33 17 -33 21 0 4 -13 13 -30 20
-16 7 -30 16 -30 21 0 4 -8 10 -19 14 -10 3 -30 16 -43 28 -14 12 -36 29 -48
37 -126 82 -466 414 -531 519 -9 14 -37 53 -63 85 -25 33 -46 65 -46 72 0 6
-7 18 -16 25 -9 7 -20 22 -25 34 -5 11 -20 38 -34 60 -13 22 -31 54 -39 72 -9
17 -20 34 -26 38 -5 3 -14 24 -20 45 -6 22 -15 40 -20 40 -5 0 -12 16 -16 35
-3 19 -12 39 -19 45 -8 6 -17 26 -21 43 -4 18 -15 48 -25 67 -11 19 -19 42
-19 50 0 8 -7 28 -15 43 -8 15 -17 45 -21 65 -4 20 -12 48 -17 62 -20 46 -57
254 -82 460 -25 201 -12 498 32 720 35 181 41 207 51 235 6 17 23 68 37 115
33 108 88 245 136 335 92 173 87 165 175 300 44 68 75 111 122 170 4 6 23 30
42 54 93 118 303 319 451 429 96 72 215 152 225 152 4 0 15 6 23 14 19 16 188
106 200 106 5 0 35 15 67 34 74 43 84 44 84 6z m130 -35 c41 -21 62 -53 49
-77 -5 -10 -12 -59 -14 -108 -2 -49 -7 -95 -11 -102 -5 -7 -7 -25 -5 -40 1
-15 -5 -38 -13 -50 -24 -34 -20 -46 34 -98 28 -27 50 -51 50 -55 0 -3 5 -11
10 -18 6 -7 17 -21 25 -32 15 -20 15 -20 32 2 10 12 29 23 42 25 19 2 27 12
34 38 11 46 27 62 27 28 0 -14 9 -37 20 -51 35 -44 22 -78 -13 -36 -19 22 -47
12 -47 -18 0 -7 -8 -16 -17 -20 -28 -10 -53 -35 -53 -53 0 -10 -19 -38 -43
-64 -36 -38 -49 -46 -80 -46 -29 0 -36 4 -39 22 -2 12 -9 23 -15 26 -18 5 -17
-54 1 -61 8 -3 16 -16 18 -28 2 -15 12 -25 28 -29 18 -4 26 -14 28 -32 2 -19
10 -27 30 -31 15 -3 39 -9 53 -12 17 -4 30 -2 37 7 6 7 25 29 42 49 16 20 30
44 30 52 0 26 21 31 41 10 22 -21 24 -18 -77 -111 -28 -26 -54 -56 -58 -68 -7
-24 -63 -50 -130 -60 -46 -6 -58 -13 -114 -67 -34 -32 -54 -84 -42 -107 6 -10
10 -28 10 -39 0 -15 6 -21 21 -21 18 0 20 5 16 26 -7 39 12 96 41 124 30 28
193 86 217 76 37 -14 3 -59 -54 -71 -38 -8 -118 -85 -128 -124 -3 -14 -12 -36
-19 -50 -8 -14 -14 -40 -14 -57 0 -42 -60 -94 -134 -115 -39 -11 -101 5 -127
34 -11 12 -29 32 -41 44 -21 22 -21 22 11 53 32 33 46 35 109 15 32 -11 29 21
-4 38 -22 11 -33 12 -62 2 -69 -24 -81 0 -24 52 103 96 207 183 217 183 4 0
29 21 55 48 27 26 59 55 72 65 23 18 23 18 -22 11 -54 -8 -104 -32 -146 -71
-16 -15 -48 -40 -70 -55 -103 -71 -286 -280 -348 -397 -11 -20 -28 -42 -38
-49 -10 -7 -18 -22 -18 -33 0 -11 -6 -22 -14 -25 -8 -3 -17 -21 -21 -40 -3
-19 -15 -40 -25 -47 -11 -6 -20 -18 -20 -26 0 -24 -43 -151 -52 -151 -14 0
-21 50 -15 102 4 29 2 59 -4 71 -8 14 -8 27 0 44 9 21 8 31 -9 58 -44 72 -21
137 62 170 31 13 73 38 93 56 20 19 43 38 51 42 8 4 14 14 14 21 0 7 9 21 20
31 11 10 20 26 20 35 0 10 9 46 21 81 11 35 18 78 16 94 -24 149 -113 276
-222 314 -119 42 -268 19 -339 -52 -19 -19 -37 -19 -43 0 -6 16 104 122 176
171 63 43 63 43 196 43 73 0 142 -4 152 -9 10 -5 52 -13 93 -17 41 -3 119 -17
172 -31 127 -32 134 -31 154 11 20 43 14 70 -25 112 -44 48 -59 97 -38 121 26
28 46 85 40 114 -3 18 2 39 16 61 12 19 21 50 21 70 0 97 56 140 130 102z
m1440 -27 c0 -4 6 -8 14 -8 8 0 17 -9 21 -19 3 -12 19 -21 40 -25 42 -8 42 -6
5 -46 -35 -38 -43 -34 -66 28 -10 26 -23 54 -31 63 -7 8 -13 24 -13 35 1 19 1
19 15 0 8 -11 15 -23 15 -28z m547 -73 c3 -9 20 -22 37 -29 26 -11 28 -15 14
-21 -11 -4 -35 1 -61 14 -24 12 -49 21 -55 21 -13 0 -16 13 -5 23 13 13 64 7
70 -8z m-1820 -72 c49 -46 51 -51 58 -115 10 -95 1 -130 -45 -178 -22 -23 -40
-46 -40 -51 0 -15 -27 -10 -34 7 -6 17 9 54 23 54 13 0 41 77 41 113 0 54 -29
120 -66 150 -40 33 -46 67 -11 67 13 0 44 -19 74 -47z m-527 -3 c0 -6 -11 -15
-25 -20 -14 -5 -25 -16 -25 -24 0 -9 -8 -20 -19 -25 -35 -19 -34 -169 2 -206
10 -9 22 -26 28 -37 12 -23 12 -23 -126 1 -33 6 -108 12 -167 13 -100 2 -137
12 -88 25 11 3 20 9 20 13 0 11 130 110 144 110 6 0 17 9 24 20 14 24 62 28
62 5 0 -18 36 -20 46 -3 4 7 1 16 -8 22 -14 9 -13 14 9 43 14 18 31 33 38 33
6 0 20 9 30 20 19 21 55 27 55 10z m1957 -6 c5 -14 -67 -104 -83 -104 -25 0
-15 32 31 93 20 26 45 32 52 11z m584 -36 c44 -29 79 -56 79 -60 0 -4 8 -8 18
-8 11 0 27 -9 37 -20 10 -11 24 -20 31 -20 7 0 30 -17 52 -37 45 -44 89 -76
115 -86 44 -16 6 -23 -135 -24 -133 -1 -159 -4 -201 -23 -63 -28 -89 -16 -53
23 14 15 30 35 35 45 13 27 1 183 -15 189 -8 3 -14 11 -14 19 0 8 -9 19 -20
26 -19 12 -27 28 -14 28 4 0 42 -23 85 -52z m-1596 -22 c-11 -16 -26 -26 -41
-26 -32 0 -31 25 3 56 23 21 29 23 41 10 12 -12 12 -17 -3 -40z m179 15 c12
-12 32 -21 45 -21 24 0 93 -34 125 -62 21 -19 25 -20 66 -22 30 -1 39 -36 16
-55 -20 -17 -116 10 -133 38 -7 10 -26 22 -43 26 -16 4 -35 15 -40 26 -7 12
-21 19 -39 19 -16 0 -31 7 -34 14 -3 8 -23 18 -44 22 -52 9 -59 15 -37 31 26
19 90 10 118 -16z m-990 13 c28 -11 18 -35 -34 -83 -63 -60 -67 -94 -14 -128
20 -13 44 -23 55 -23 14 0 19 -7 19 -29 0 -18 8 -34 23 -44 17 -12 19 -18 10
-28 -10 -10 -15 -9 -29 2 -18 15 -81 39 -103 39 -17 0 -61 39 -61 53 0 6 -8
19 -17 29 -12 13 -18 39 -19 76 -2 54 0 59 39 100 41 42 84 54 131 36z m974
-110 c22 -16 56 -49 76 -73 48 -57 48 -91 1 -127 -36 -27 -46 -60 -20 -70 26
-10 109 72 115 114 5 35 7 37 40 37 34 0 35 -1 38 -41 3 -34 -3 -48 -38 -92
-23 -29 -52 -55 -66 -58 -13 -3 -31 -19 -41 -34 -20 -32 -81 -77 -118 -86 -13
-3 -31 -14 -41 -25 -11 -12 -30 -19 -56 -19 -51 0 -74 13 -86 50 -6 16 -17 30
-24 30 -12 0 -39 78 -53 155 -5 28 -2 32 45 53 54 24 60 37 31 73 -19 23 -19
23 -40 5 -26 -24 -34 -9 -29 55 3 44 3 44 50 43 37 0 49 4 53 17 13 39 106 35
163 -7z m1171 -15 c24 -8 31 -17 31 -36 0 -24 -3 -25 -37 -20 -41 7 -53 20
-46 48 6 22 10 23 52 8z m-375 -22 c8 -12 7 -20 -1 -28 -16 -16 -33 -2 -33 27
0 28 17 28 34 1z m261 -171 c19 -14 19 -15 -8 -27 -31 -14 -54 -1 -44 25 8 20
27 20 52 2z m-265 -46 c0 -9 -47 -60 -55 -60 -8 0 -6 17 5 44 9 25 50 38 50
16z m54 -65 c18 -27 15 -30 -15 -15 -10 6 -19 17 -19 25 0 23 16 18 34 -10z
m-139 -25 c34 -17 47 -32 37 -42 -11 -11 -52 3 -52 17 0 8 -9 17 -20 20 -11 4
-18 11 -14 16 3 6 9 9 12 7 4 -2 21 -10 37 -18z m-467 -17 c-2 -17 -9 -28 -18
-28 -9 0 -16 11 -18 28 -3 22 1 27 18 27 17 0 21 -5 18 -27z m-798 -49 c0 -28
-26 -59 -65 -80 -32 -17 -45 -18 -45 -4 0 6 6 10 14 10 8 0 17 11 20 25 4 14
12 25 19 25 7 0 18 14 24 31 13 35 33 31 33 -7z m1201 13 c15 -7 41 -29 59
-50 43 -50 37 -76 -34 -152 -31 -32 -58 -66 -61 -74 -7 -22 -62 -57 -82 -53
-19 4 -73 56 -73 71 0 5 -8 16 -18 23 -64 46 -49 81 83 193 68 57 83 62 126
42z m-458 -9 c15 -12 48 -93 61 -150 3 -15 15 -32 26 -38 45 -24 2 -95 -75
-124 -25 -10 -45 -22 -45 -28 0 -6 -8 -4 -17 5 -10 8 -30 18 -45 22 -15 4 -32
13 -39 21 -6 8 -16 14 -22 14 -21 0 -57 44 -57 69 0 14 -7 39 -15 55 -9 16
-14 30 -13 31 2 1 23 12 48 24 56 28 100 69 100 93 0 22 66 26 93 6z m-415
-44 c34 -54 28 -70 -15 -36 -26 21 -42 72 -22 72 8 -1 24 -17 37 -36z m-1338
-16 c56 -16 85 -31 115 -60 22 -21 43 -38 47 -38 5 0 8 -5 8 -11 0 -6 9 -22
20 -36 30 -39 28 -141 -5 -196 -29 -50 -67 -89 -118 -122 -33 -22 -49 -25
-126 -25 -84 0 -88 1 -99 25 -18 40 -15 45 31 45 36 0 49 7 96 49 55 50 55 50
55 136 1 87 1 87 -47 131 -27 24 -63 48 -80 52 -41 10 -50 48 -15 61 33 14 35
13 118 -11z m3474 12 c18 -6 26 -17 26 -33 0 -21 -6 -25 -40 -31 -23 -3 -43
-13 -46 -21 -3 -8 -14 -17 -23 -20 -27 -8 -61 -86 -61 -139 0 -55 36 -132 76
-160 15 -11 49 -21 76 -24 45 -4 48 -6 48 -33 0 -38 -12 -43 -106 -42 -99 1
-154 28 -215 105 -57 72 -66 112 -45 195 24 97 88 162 189 191 86 24 89 25
121 12z m-2197 -105 c87 -42 173 -135 197 -216 26 -87 19 -206 -19 -317 -21
-63 -25 -86 -16 -95 6 -6 11 -19 11 -28 0 -10 11 -20 25 -23 26 -7 33 -30 13
-42 -12 -7 -67 52 -68 73 0 6 -17 20 -37 30 -33 16 -39 24 -48 68 -5 28 -20
66 -32 85 -31 49 -38 60 -58 102 -16 35 -165 191 -199 210 -25 14 -20 63 8 82
13 8 39 36 58 62 31 43 35 46 70 41 20 -3 63 -17 95 -32z m1102 11 c9 -7 43
-28 76 -45 33 -18 76 -44 95 -59 19 -15 55 -41 79 -57 109 -73 340 -307 381
-385 7 -14 16 -27 19 -30 14 -11 61 -87 61 -97 0 -7 6 -18 13 -25 11 -11 55
-97 71 -138 3 -8 10 -22 14 -30 11 -18 35 -89 67 -196 48 -161 68 -387 50
-569 -8 -87 -32 -249 -40 -268 -10 -23 20 -67 46 -67 16 0 28 -17 55 -74 19
-41 38 -77 43 -80 5 -3 9 -27 8 -53 0 -27 8 -61 17 -78 9 -16 16 -38 16 -47 0
-10 9 -22 20 -28 11 -6 20 -19 20 -29 0 -10 9 -28 20 -41 11 -13 20 -31 20
-42 0 -10 9 -35 20 -55 11 -21 20 -51 20 -68 0 -17 8 -42 18 -55 26 -38 24
-299 -4 -389 -27 -89 -40 -88 -47 5 -3 48 -11 82 -21 93 -9 10 -16 23 -16 29
0 19 -58 98 -92 124 -18 14 -48 40 -65 57 -18 17 -36 31 -41 31 -4 0 -7 28 -7
62 0 49 -3 63 -16 66 -24 4 -42 -84 -23 -113 19 -29 -2 -49 -41 -39 -19 5 -35
1 -55 -15 -16 -11 -36 -21 -45 -21 -26 0 -29 28 -6 48 22 17 39 42 65 97 8 17
31 46 50 65 20 19 36 40 36 47 0 6 16 17 35 23 19 6 40 21 46 32 14 27 5 97
-20 154 -21 46 -14 62 17 45 34 -18 59 28 26 47 -8 5 -21 19 -27 33 -7 13 -21
25 -32 27 -11 2 -27 10 -35 17 -37 31 -119 69 -165 76 -186 29 -216 42 -160
67 43 20 138 15 168 -8 14 -11 31 -20 39 -20 7 0 22 -6 33 -14 11 -7 32 -16
46 -19 16 -4 29 -16 32 -29 5 -18 9 -20 18 -11 10 10 9 17 -4 31 -9 10 -17 23
-18 28 -1 18 -125 91 -189 112 -114 37 -192 38 -360 3 -129 -27 -224 -30 -295
-10 -38 10 -73 23 -79 29 -5 5 -16 10 -24 10 -21 0 -113 81 -146 129 -22 32
-27 46 -21 68 4 15 9 91 10 168 3 138 22 277 50 365 8 25 17 62 20 83 5 30 10
37 29 37 13 0 35 9 49 20 26 21 26 21 -5 67 -27 39 -33 59 -41 145 -10 99 -10
99 17 127 29 30 66 125 66 169 0 16 -9 41 -20 55 -11 14 -20 29 -20 33 0 11
-71 73 -102 90 -40 21 -54 51 -34 73 9 10 16 20 16 23 0 3 26 33 58 66 31 33
68 79 82 101 27 44 35 48 59 27z m-2759 -79 c0 -7 -12 -34 -25 -62 -14 -27
-25 -65 -25 -84 0 -21 -8 -43 -21 -57 -19 -20 -20 -35 -22 -200 -1 -172 8
-244 33 -244 4 0 11 -17 15 -37 14 -76 128 -248 225 -340 43 -41 52 -50 80
-78 48 -48 58 -36 55 65 -2 57 -8 97 -17 107 -18 22 -19 171 -1 201 12 20 21
196 13 237 -6 26 1 36 23 33 21 -3 22 -7 24 -111 2 -59 7 -117 13 -127 25 -48
33 -224 15 -364 -9 -74 -15 -152 -13 -173 4 -51 -29 -59 -58 -15 -11 16 -44
50 -74 75 -156 132 -255 253 -333 407 -16 30 -35 69 -44 85 -9 17 -19 50 -23
75 -4 25 -15 74 -25 110 -20 75 -16 230 7 259 8 9 27 43 43 76 16 33 35 64 42
68 7 4 13 15 13 23 0 20 61 95 71 88 5 -3 9 -11 9 -17z m4162 -14 c15 -16 38
-50 52 -77 14 -27 30 -54 35 -60 5 -6 12 -22 16 -36 4 -14 14 -29 21 -35 15
-11 36 -86 37 -130 1 -57 -22 -211 -36 -246 -8 -19 -20 -52 -26 -75 -6 -23
-22 -57 -35 -77 -13 -19 -27 -45 -31 -57 -17 -53 -101 -156 -256 -312 -91 -92
-169 -165 -173 -161 -3 3 -6 29 -6 56 0 27 -7 72 -15 100 -21 75 -16 262 9
299 13 20 16 36 11 55 -13 50 -13 302 0 313 29 24 45 0 39 -55 -4 -29 -4 -65
0 -80 12 -46 26 -16 26 54 0 77 3 81 80 117 72 33 152 119 179 192 24 62 38
76 62 62 17 -11 17 -113 -1 -135 -10 -13 -9 -15 9 -15 20 0 22 -4 19 -57 -3
-52 -5 -58 -26 -61 -13 -2 -32 4 -43 14 -33 30 -88 14 -148 -43 -28 -27 -51
-54 -51 -60 0 -6 -7 -16 -15 -23 -8 -7 -15 -25 -15 -40 0 -16 7 -30 15 -34 8
-3 15 -15 15 -26 0 -29 58 -80 91 -80 30 0 79 35 79 56 0 8 7 17 15 20 40 16
-12 124 -60 124 -14 0 -32 -11 -44 -26 -24 -31 -28 -52 -6 -34 18 15 85 5 85
-14 0 -7 -11 -23 -24 -35 -29 -28 -67 -25 -81 7 -5 12 -18 22 -27 22 -13 0
-18 8 -18 30 0 20 5 30 15 30 8 0 15 7 15 15 0 8 13 28 30 45 31 32 85 41 107
19 6 -6 22 -17 35 -23 21 -10 23 -19 26 -89 2 -62 0 -77 -12 -77 -9 0 -17 -14
-21 -39 -4 -26 -19 -50 -46 -77 -21 -21 -39 -42 -39 -47 0 -5 -9 -21 -21 -35
-84 -110 -99 -131 -99 -141 0 -6 -10 -11 -21 -11 -21 0 -21 3 -14 73 4 42 13
79 22 89 9 10 13 25 10 35 -31 94 -46 128 -61 131 -14 3 -16 -10 -18 -110 -1
-62 -3 -129 -5 -148 -2 -19 -5 -51 -6 -70 -2 -19 -7 -52 -11 -73 -11 -50 5
-70 33 -41 11 10 26 24 33 31 27 24 164 172 191 206 24 31 41 60 84 142 66
125 100 335 73 445 -35 145 -73 250 -90 250 -6 0 -10 14 -10 30 0 37 9 38 42
3z m-3940 -4 c15 -8 16 -13 1 -54 -17 -52 -16 -51 -64 -60 -34 -6 -37 -5 -48
26 -26 74 -5 111 57 102 20 -3 45 -10 54 -14z m3786 1 c21 -18 23 -23 12 -54
-15 -46 -31 -58 -77 -54 -38 3 -38 3 -41 56 -3 47 -1 53 20 61 36 15 61 12 86
-9z m-1786 -125 c-4 -22 -1 -25 27 -25 34 0 37 -6 19 -45 -19 -42 -48 -27 -48
26 0 15 -7 19 -34 19 -19 0 -37 4 -40 9 -7 10 17 21 45 21 10 0 19 5 19 10 0
6 4 10 9 10 4 0 6 -11 3 -25z m220 -28 c39 -46 42 -63 19 -108 -12 -21 -24
-63 -27 -93 -6 -53 -6 -53 41 -69 52 -18 65 -16 65 14 0 16 7 19 39 19 49 0
55 -8 39 -59 -10 -33 -16 -40 -31 -35 -16 5 -18 2 -13 -23 6 -24 2 -32 -23
-51 -36 -26 -40 -26 -77 -7 -26 13 -29 21 -34 77 -5 63 -5 63 -63 63 -54 0
-60 2 -73 28 -8 15 -18 27 -23 27 -5 0 -26 14 -47 31 -29 23 -40 40 -44 67 -5
37 -5 37 -100 47 -100 11 -120 17 -120 41 0 20 16 18 50 -7 20 -16 36 -20 55
-15 51 13 109 -3 130 -35 24 -35 56 -38 93 -8 39 31 62 70 62 108 0 31 2 33
27 26 16 -4 40 -21 55 -38z m-2412 -41 c0 -31 7 -52 23 -72 42 -51 109 -115
131 -124 42 -18 101 -57 101 -66 -5 -97 -20 -212 -29 -224 -42 -51 -38 -239 5
-269 21 -15 26 -56 8 -67 -13 -7 -17 -2 -96 102 -28 38 -58 77 -67 86 -8 9
-20 27 -27 40 -6 13 -18 27 -25 31 -8 4 -14 14 -14 21 0 6 -11 27 -25 46 -14
19 -25 44 -25 56 0 12 -7 24 -15 28 -39 15 8 157 57 169 26 7 78 -2 78 -14 0
-5 11 -14 25 -19 14 -5 25 -16 25 -24 0 -9 9 -20 21 -26 27 -15 20 -47 -20
-90 -39 -43 -75 -39 -79 8 -3 33 -3 33 32 26 43 -7 45 3 11 40 -49 53 -104 11
-96 -74 4 -37 12 -60 23 -60 6 0 21 -11 34 -25 15 -17 29 -23 41 -18 28 10 73
46 73 57 0 6 7 25 16 41 28 53 12 106 -49 161 -76 68 -129 82 -165 44 -40 -43
-60 13 -41 110 2 8 0 35 -5 59 -8 40 -6 45 20 67 43 35 54 31 54 -20z m1360
-26 c0 -27 -114 -143 -137 -138 -27 6 -19 55 14 86 74 71 123 92 123 52z m578
-32 c-2 -13 -10 -23 -18 -23 -8 0 -16 10 -18 23 -3 17 2 22 18 22 16 0 21 -5
18 -22z m136 -53 c15 -22 22 -25 51 -19 39 7 48 -8 15 -26 -25 -13 -26 -38 -2
-47 9 -4 22 -12 27 -19 14 -18 87 -54 107 -54 21 0 38 -29 38 -64 0 -22 -4
-26 -30 -26 -23 0 -33 -6 -40 -25 -10 -28 -55 -44 -73 -26 -16 16 -47 14 -47
-3 0 -8 7 -16 15 -20 8 -3 15 -10 15 -16 0 -15 -33 -12 -66 5 -16 8 -38 15
-49 15 -11 0 -36 8 -55 19 -22 11 -47 17 -66 14 -37 -6 -49 8 -33 38 8 16 8
27 -1 44 -10 18 -9 28 4 53 9 18 16 55 16 87 0 57 12 70 35 39 9 -13 16 -14
29 -7 16 9 16 11 2 16 -9 4 -16 16 -16 27 0 33 102 29 124 -5z m511 -11 c0
-12 -13 -25 -34 -35 -18 -8 -38 -23 -43 -32 -11 -21 -48 -23 -48 -3 0 8 9 18
20 21 11 3 20 14 20 24 0 10 7 24 15 31 8 7 15 9 15 6 0 -4 8 -2 18 3 23 14
37 8 37 -15z m1765 -84 c0 -11 9 -29 20 -40 24 -24 26 -73 5 -123 -8 -20 -15
-53 -15 -73 0 -21 -14 -68 -34 -108 -18 -39 -36 -88 -40 -110 -4 -21 -16 -55
-27 -75 -10 -20 -19 -41 -19 -48 0 -7 -6 -16 -13 -20 -7 -4 -26 -35 -41 -68
-30 -64 -115 -155 -146 -155 -30 0 -42 -25 -35 -74 8 -50 4 -56 -106 -151 -25
-22 -49 -50 -53 -62 -4 -12 -23 -39 -42 -60 -19 -21 -37 -48 -40 -60 -7 -26
-29 -31 -37 -9 -7 18 7 72 24 92 9 11 8 19 -6 34 -15 17 -17 32 -12 101 6 91
-6 75 166 221 107 91 271 269 271 294 0 4 6 15 14 23 28 32 98 177 106 221 4
25 15 63 24 85 8 22 15 72 16 113 0 41 4 72 10 72 6 0 10 -9 10 -20z m-4626
-12 c3 -13 6 -45 6 -73 0 -28 7 -59 15 -69 8 -11 15 -30 15 -43 0 -38 80 -226
102 -239 5 -3 15 -20 23 -37 27 -55 43 -80 59 -89 9 -5 16 -14 16 -21 0 -12
167 -177 255 -252 107 -91 117 -110 106 -221 -5 -56 -4 -89 6 -117 14 -40 11
-57 -11 -57 -12 0 -44 37 -78 91 -9 15 -37 48 -62 73 -25 25 -46 49 -46 52 0
4 -18 24 -41 45 -38 35 -40 40 -37 85 3 48 3 49 -47 81 -27 18 -58 41 -68 50
-29 27 -87 118 -87 135 0 9 -9 27 -20 41 -11 14 -20 32 -20 40 0 8 -6 20 -14
26 -8 7 -19 35 -25 62 -6 27 -17 60 -25 72 -7 12 -16 41 -20 64 -3 24 -16 61
-27 83 -31 58 -22 240 10 240 5 0 11 -10 15 -22z m1750 16 c21 -8 21 -34 0
-34 -9 0 -18 -9 -21 -20 -3 -11 -9 -20 -13 -20 -20 0 -73 -67 -95 -122 -23
-58 -68 -118 -87 -118 -16 0 -8 91 12 127 11 21 20 43 20 51 0 15 78 102 92
102 6 0 21 9 35 20 28 22 33 23 57 14z m56 -200 c0 -25 -87 -104 -114 -104 -3
0 -10 10 -17 21 -10 19 -5 27 47 76 53 49 60 52 71 37 7 -10 13 -23 13 -30z
m879 4 c14 -39 4 -50 -40 -46 -63 6 -47 74 18 77 6 1 16 -13 22 -31z m2031
-34 c0 -30 5 -46 15 -50 11 -4 15 -21 15 -55 0 -40 5 -53 25 -71 49 -42 19
-89 -31 -49 -18 14 -39 21 -60 19 -44 -3 -49 5 -35 52 13 45 21 49 39 20 7
-12 17 -18 22 -15 16 10 12 50 -11 107 -16 41 -18 57 -10 76 16 34 31 18 31
-34z m-4800 -13 c0 -16 7 -34 15 -41 16 -14 21 -75 6 -84 -5 -4 -21 -2 -36 4
-24 9 -26 14 -21 43 4 17 10 49 13 70 6 44 23 50 23 8z m2880 -36 c17 -9 31
-19 31 -23 9 -55 5 -163 -5 -169 -7 -5 -16 -30 -18 -56 -3 -26 -13 -56 -21
-65 -9 -9 -18 -30 -22 -47 -4 -16 -13 -48 -20 -70 -24 -74 -34 -158 -25 -205
14 -73 -11 -160 -45 -160 -7 0 -18 -6 -24 -14 -7 -8 -33 -22 -58 -30 -39 -13
-49 -14 -72 -2 -26 14 -107 101 -126 137 -16 28 -51 50 -69 43 -10 -4 -31 7
-56 30 -55 49 -131 86 -180 86 -49 0 -55 26 -13 65 29 27 62 32 94 15 11 -6
25 -8 32 -3 8 5 3 9 -13 13 -35 8 -36 34 -2 78 16 20 31 45 35 54 3 10 22 24
40 32 45 18 51 29 27 51 -16 15 -19 26 -13 59 10 71 29 98 66 94 30 -3 32 -5
31 -44 0 -26 -8 -51 -22 -69 -29 -36 -28 -49 5 -64 26 -12 30 -11 55 20 33 39
36 69 8 87 -19 11 -21 28 -11 105 1 5 18 7 39 5 37 -3 37 -3 37 -73 0 -63 2
-70 21 -73 30 -4 50 42 29 71 -19 27 -19 91 -1 106 8 7 27 11 43 9 25 -3 28
-7 25 -34 -2 -19 3 -36 12 -44 19 -15 20 -59 2 -83 -14 -18 -11 -57 4 -57 4 0
13 -13 19 -29 12 -27 55 -56 69 -47 17 11 55 95 49 110 -5 12 -16 15 -54 11
-43 -5 -46 -4 -23 7 33 17 40 28 29 49 -22 43 9 54 47 18 25 -23 54 -20 54 6
0 9 -8 18 -17 22 -68 24 -103 93 -48 93 15 0 39 -7 55 -15z m-115 -36 c8 -35
3 -44 -20 -36 -20 8 -21 67 -1 67 8 0 17 -14 21 -31z m-460 1 c33 -12 24 -30
-16 -30 -22 0 -29 5 -29 20 0 23 7 24 45 10z m-2256 -81 c23 -8 31 -17 31 -34
0 -33 -12 -37 -56 -19 -37 15 -39 15 -56 -6 -25 -31 -51 -20 -42 17 13 54 50
67 123 42z m2279 -21 c17 -17 15 -75 -3 -82 -32 -12 -55 37 -35 75 12 22 21
24 38 7z m2476 -83 c3 -8 16 -19 30 -25 20 -7 29 -25 50 -91 27 -88 26 -100
-2 -92 -41 10 -54 -119 -14 -132 11 -3 24 -23 32 -48 6 -23 16 -52 21 -65 24
-62 -6 -100 -35 -44 -8 16 -50 59 -93 97 -141 124 -173 162 -173 208 0 38 21
77 42 77 5 0 14 -14 20 -30 13 -40 40 -53 89 -45 68 12 88 76 39 125 -20 20
-51 18 -71 -6 -9 -11 -5 -16 15 -26 30 -13 31 -41 3 -46 -26 -5 -67 43 -67 78
0 40 37 78 76 79 20 1 34 -5 38 -14z m-4723 -52 c20 -31 20 -35 5 -58 -21 -32
-62 -43 -83 -22 -15 15 -14 17 11 28 34 16 30 43 -6 47 -20 2 -30 -3 -39 -20
-6 -13 -18 -27 -26 -31 -28 -17 45 -97 88 -97 5 0 31 23 60 51 28 27 54 48 57
44 3 -3 8 -31 10 -63 4 -58 4 -58 -86 -150 -50 -51 -95 -92 -99 -92 -4 0 -30
-30 -57 -65 -26 -36 -53 -62 -58 -59 -13 8 -1 126 16 158 6 12 28 37 49 55 20
18 37 39 37 46 0 7 7 18 15 25 24 20 6 32 -35 25 -39 -7 -39 -7 -45 39 -23
153 114 255 186 139z m157 -255 c2 -20 -4 -51 -13 -68 -14 -28 -14 -32 0 -46
8 -8 15 -24 15 -34 0 -31 45 -52 96 -44 44 6 44 6 137 -90 168 -174 167 -173
167 -222 0 -38 -4 -46 -24 -54 -22 -8 -24 -14 -19 -43 4 -27 1 -37 -15 -48
-11 -8 -22 -26 -24 -39 -1 -14 -11 -26 -20 -28 -25 -5 -24 42 0 60 25 18 33
34 26 52 -9 24 -33 19 -40 -8 -3 -14 -12 -27 -20 -30 -20 -8 -19 -76 1 -76 24
0 20 -61 -5 -67 -15 -4 -20 -14 -20 -37 0 -19 -8 -38 -20 -49 -11 -9 -20 -23
-20 -30 0 -8 -9 -22 -20 -32 -11 -10 -20 -22 -20 -27 0 -15 -84 -99 -108 -109
-15 -6 -30 -5 -43 1 -25 14 -24 27 1 35 25 8 25 26 0 67 -26 43 -25 58 4 58
13 0 29 7 36 15 7 8 24 15 37 15 16 0 27 7 30 20 3 11 13 20 23 20 35 0 45 28
22 58 -12 15 -26 37 -32 49 -5 12 -18 24 -29 28 -38 12 -42 79 -6 99 11 6 23
16 27 21 12 17 -4 89 -24 103 -10 7 -18 20 -18 28 0 20 -13 17 -28 -6 -17 -28
-27 -25 -51 15 -24 41 -19 46 38 35 25 -4 51 -6 58 -3 7 3 20 0 28 -7 21 -17
31 -5 12 14 -12 13 -13 23 -5 55 13 51 5 71 -27 71 -20 0 -25 -5 -25 -24 0
-32 -14 -42 -85 -59 -33 -9 -85 -22 -115 -29 -68 -17 -113 -10 -118 17 -2 11
-8 24 -12 28 -13 14 -50 -2 -50 -21 1 -30 35 -119 53 -136 9 -10 17 -30 17
-46 0 -46 77 -110 81 -67 1 6 2 21 3 32 1 15 9 21 33 23 37 4 46 21 32 62 -12
34 -26 39 -36 13 -15 -41 -43 -42 -66 -4 -22 37 -3 60 34 41 16 -9 28 -9 46
-1 48 22 72 10 73 -37 1 -45 60 -77 89 -49 10 10 12 5 9 -23 -3 -30 -7 -35
-31 -38 -19 -2 -33 3 -42 15 -20 27 -24 14 -14 -42 6 -35 17 -56 34 -68 14
-10 25 -25 25 -32 0 -20 -37 -37 -61 -30 -21 7 -21 8 -2 67 3 12 -3 21 -21 29
-14 7 -33 23 -42 36 -12 20 -18 22 -30 12 -22 -18 -17 -55 11 -73 30 -20 31
-29 4 -65 -12 -16 -19 -34 -15 -39 10 -16 128 -12 154 4 39 26 76 15 80 -23 3
-30 1 -33 -26 -33 -16 0 -49 -14 -77 -34 -50 -36 -69 -37 -96 -3 -16 20 -17
20 -34 -6 -11 -17 -26 -27 -41 -27 -13 0 -29 -9 -36 -20 -7 -11 -19 -20 -26
-20 -7 0 -15 -14 -19 -30 -7 -39 -19 -46 -32 -21 -15 27 -14 35 9 61 25 29 25
52 1 67 -21 13 -35 63 -17 63 6 0 22 -7 34 -16 24 -16 73 -16 79 1 2 6 -17 26
-42 45 -24 19 -51 51 -60 70 -9 19 -23 49 -32 65 -37 67 -43 84 -43 114 0 18
-6 42 -14 54 -8 12 -17 44 -21 71 -6 45 -4 52 32 105 41 61 194 221 211 221 5
0 24 21 41 48 42 65 50 74 69 70 12 -2 18 -15 20 -40z m4372 2 c11 -22 24 -40
29 -40 13 0 231 -218 231 -231 0 -7 8 -26 19 -43 25 -42 34 -136 15 -171 -8
-15 -14 -32 -14 -37 0 -6 -11 -23 -25 -40 -16 -19 -25 -42 -25 -65 0 -36 -14
-59 -86 -141 -23 -26 -39 -53 -37 -59 6 -18 42 -16 49 2 4 9 19 15 40 15 33 0
33 0 13 -35 -12 -19 -27 -35 -35 -35 -9 0 -14 -11 -14 -30 0 -36 -1 -36 -50
-7 -30 16 -41 30 -46 55 -6 32 -24 45 -24 17 0 -42 -151 -59 -167 -19 -3 8
-19 14 -38 14 -27 0 -68 25 -54 33 2 1 19 13 38 26 29 20 36 22 57 10 18 -9
33 -10 58 -2 31 10 37 8 57 -13 33 -35 49 -31 49 14 0 21 -5 43 -11 49 -19 19
0 51 51 84 39 25 53 43 76 95 15 35 39 71 52 80 24 16 24 16 2 39 -22 23 -22
23 5 41 27 18 27 18 5 36 -31 25 -48 22 -52 -9 -3 -26 -7 -28 -63 -35 -47 -5
-65 -3 -85 10 -14 9 -52 22 -85 27 -51 9 -61 14 -69 36 -5 15 -6 34 -3 43 9
23 81 21 136 -4 57 -26 154 -28 149 -3 -2 9 -18 21 -36 25 -33 9 -33 9 -10 27
20 17 21 21 9 44 -7 14 -24 31 -37 38 -29 15 -43 5 -58 -42 -11 -32 -12 -32
-81 -33 -61 -1 -71 -4 -79 -22 -6 -12 -22 -29 -38 -39 -15 -9 -28 -23 -28 -31
0 -32 30 -83 57 -96 19 -9 30 -23 33 -43 3 -17 18 -50 35 -75 30 -45 30 -45
39 9 9 50 8 55 -13 73 -16 12 -21 23 -16 35 6 16 8 16 18 -4 5 -13 18 -23 27
-23 10 0 23 -6 29 -14 9 -11 19 -12 44 -4 18 5 39 12 48 15 19 6 32 -21 23
-50 -5 -17 -13 -19 -55 -15 -48 5 -61 -3 -51 -29 2 -7 12 -13 22 -13 50 0 15
-63 -41 -75 -37 -8 -53 -70 -23 -92 28 -21 4 -32 -35 -16 -30 13 -33 17 -27
45 3 17 13 45 21 61 19 38 20 35 -17 39 -30 3 -33 6 -36 41 -2 20 -7 37 -12
37 -5 0 -17 14 -25 30 -9 17 -20 28 -25 25 -13 -8 -13 -82 0 -98 75 -92 75
-89 10 -156 -37 -38 -50 -59 -50 -81 0 -41 9 -60 30 -60 9 0 34 -11 54 -25 20
-14 48 -25 61 -25 35 0 38 -14 9 -45 -18 -20 -24 -34 -19 -49 19 -62 19 -66
-10 -66 -16 0 -37 8 -47 18 -50 46 -88 88 -88 98 0 6 -9 23 -20 37 -11 14 -20
32 -20 40 0 8 -9 26 -20 40 -11 14 -20 30 -20 37 0 6 -10 20 -22 29 -23 20
-19 51 7 51 9 0 15 -9 15 -26 0 -31 23 -28 28 4 2 15 -2 22 -12 22 -12 0 -16
10 -16 40 0 51 -32 57 -49 9 -10 -29 -31 -32 -31 -5 0 7 -9 25 -20 39 -11 14
-20 34 -20 45 0 10 -9 27 -20 37 -11 10 -20 28 -20 40 0 12 9 30 20 40 11 10
20 23 20 30 0 33 208 241 251 250 19 4 40 12 47 17 7 6 30 8 52 4 39 -6 40 -5
34 18 -3 13 -1 27 5 30 17 11 14 86 -4 92 -20 8 -19 38 1 58 23 24 32 20 54
-24z m-121 -35 c51 -26 54 -65 8 -92 -33 -20 -33 -20 -64 6 -23 20 -29 31 -23
46 5 11 11 28 14 38 7 21 28 22 65 2z m-4116 -27 c5 -37 -20 -98 -40 -98 -7 0
-28 14 -47 31 -34 30 -35 32 -21 59 17 32 27 38 71 39 28 1 32 -3 37 -31z
m1707 -33 c11 -30 35 -42 53 -27 10 9 12 3 9 -26 -2 -24 0 -32 6 -24 5 7 25
21 44 32 38 20 47 17 62 -24 4 -13 13 -17 27 -13 33 9 49 -3 49 -34 0 -23 -7
-33 -34 -46 -40 -19 -71 -11 -63 16 10 38 -11 48 -38 19 -29 -31 -36 -33 -53
-16 -6 6 -36 12 -67 13 -66 3 -77 10 -48 33 32 26 38 58 13 72 -25 13 -26 37
-2 43 30 8 32 7 42 -18z m-80 -49 c0 -8 -7 -17 -16 -20 -10 -4 -13 -13 -9 -26
7 -22 -19 -40 -35 -24 -13 13 0 54 16 54 8 0 14 7 14 15 0 8 7 15 15 15 8 0
15 -6 15 -14z m407 -115 c3 -14 15 -21 37 -23 28 -3 31 -7 34 -40 3 -34 1 -38
-20 -38 -31 0 -71 28 -64 46 3 8 2 14 -3 14 -16 0 -36 -33 -36 -59 0 -24 -4
-26 -39 -26 -50 0 -59 21 -14 33 29 8 33 12 30 40 -5 54 62 102 75 53z m-241
-33 c-4 -13 -8 -30 -9 -38 -3 -21 41 -26 49 -6 7 18 39 22 49 6 23 -37 -48
-80 -99 -60 -48 18 -66 13 -66 -18 0 -24 6 -31 40 -45 37 -14 40 -18 40 -55 0
-46 -20 -71 -40 -47 -26 32 -49 17 -85 -56 -19 -39 -35 -76 -35 -81 0 -5 -20
-33 -44 -61 -24 -29 -46 -62 -50 -73 -4 -12 -31 -47 -61 -79 -30 -31 -55 -59
-55 -62 0 -9 -56 -59 -80 -71 -34 -16 -59 -33 -93 -59 -16 -13 -35 -23 -43
-23 -24 0 -15 29 11 36 14 3 25 10 25 16 0 5 15 15 33 23 69 29 197 168 197
213 0 15 92 152 101 152 5 0 9 5 9 11 0 21 62 107 80 112 17 4 46 95 34 106
-9 10 -55 -24 -60 -45 -3 -13 -17 -30 -30 -39 -13 -8 -24 -24 -24 -34 0 -10
-7 -24 -15 -31 -8 -6 -17 -21 -21 -33 -10 -33 -63 -82 -76 -69 -7 7 -6 16 1
30 14 26 14 65 1 57 -18 -11 -40 15 -40 46 0 32 11 37 30 14 17 -21 41 -19 47
5 3 10 13 22 23 25 43 14 25 140 -21 152 -27 7 -21 44 9 59 13 6 29 17 35 23
16 16 52 14 67 -4 7 -8 18 -15 26 -15 7 0 16 -9 19 -20 3 -11 10 -20 15 -20 5
0 14 9 20 20 6 11 19 20 30 20 11 0 24 9 30 20 15 28 34 26 26 -2z m510 -108
c19 0 18 -39 -1 -46 -8 -3 -20 -24 -25 -45 -11 -40 -11 -40 -41 -14 -17 14
-35 25 -41 25 -19 0 -80 70 -76 88 2 13 16 18 58 20 30 2 59 8 65 13 6 6 16 1
28 -16 10 -14 25 -25 33 -25z m114 32 c0 -24 -46 -50 -61 -35 -8 8 -4 17 12
32 28 26 49 27 49 3z m-372 -44 c6 -7 12 -26 14 -43 2 -22 11 -34 36 -45 18
-9 41 -30 51 -47 11 -17 33 -35 50 -41 17 -6 34 -18 37 -26 3 -8 18 -19 34
-26 16 -7 31 -18 34 -26 3 -8 12 -14 19 -14 8 0 19 -11 25 -24 6 -14 24 -33
39 -43 46 -29 101 -85 108 -110 3 -13 9 -23 14 -23 4 0 19 -10 33 -22 14 -13
40 -34 57 -48 17 -14 31 -30 31 -36 0 -7 7 -14 15 -18 13 -4 23 -36 11 -36
-21 0 -67 26 -71 41 -5 16 -12 19 -35 14 -22 -5 -31 -1 -44 16 -14 20 -18 21
-43 10 -24 -11 -26 -14 -12 -24 8 -7 18 -20 22 -29 3 -10 13 -18 20 -18 8 0
20 -7 27 -15 7 -9 21 -14 30 -13 9 2 23 -2 31 -8 26 -21 88 -25 99 -6 8 14 9
12 10 -10 0 -16 5 -28 10 -28 6 0 18 -8 28 -17 10 -10 27 -23 38 -29 10 -6 20
-21 22 -33 2 -11 10 -21 17 -21 33 0 29 -92 -5 -110 -25 -14 -47 12 -25 30 23
19 20 76 -6 83 -11 3 -23 15 -26 26 -6 23 -45 29 -73 11 -11 -7 -9 -11 12 -19
23 -9 58 -55 58 -76 0 -4 -13 -4 -30 0 -25 5 -30 3 -30 -12 0 -10 9 -24 20
-31 11 -7 20 -23 20 -36 0 -13 7 -29 15 -36 8 -7 15 -20 15 -30 0 -10 7 -23
15 -30 19 -16 19 -34 1 -49 -7 -6 -16 -31 -18 -56 -3 -24 -13 -51 -22 -60 -9
-9 -16 -20 -16 -25 0 -4 -18 -31 -40 -59 -22 -28 -40 -59 -40 -71 0 -11 -15
-43 -34 -72 -18 -29 -37 -64 -41 -78 -4 -14 -19 -47 -33 -75 -26 -53 -33 -131
-18 -211 13 -65 -24 -115 -119 -159 -41 -19 -80 -35 -88 -35 -7 0 -21 -6 -31
-13 -18 -13 -17 -15 9 -35 15 -12 37 -22 49 -22 20 0 21 -4 21 -138 0 -152 -4
-163 -76 -233 -33 -32 -46 -37 -105 -44 -67 -7 -67 -7 -100 32 -18 21 -33 44
-34 52 0 8 -8 23 -17 33 -29 32 -23 140 10 209 15 31 27 64 27 73 0 9 7 19 15
22 8 4 15 13 15 22 0 19 39 62 56 62 7 0 17 -6 21 -13 11 -16 64 -40 72 -31 3
4 0 9 -6 11 -23 8 -15 59 12 77 41 27 85 77 85 97 0 11 9 24 20 31 11 7 20 20
20 30 0 9 5 20 11 24 18 11 28 -18 22 -64 -5 -40 -4 -44 13 -40 16 3 19 12 16
63 -1 32 -8 65 -14 72 -8 10 -7 18 6 31 8 10 19 34 23 53 3 18 21 59 38 89 18
30 36 65 39 78 4 12 14 22 22 22 8 0 14 10 14 26 0 31 -23 28 -28 -4 -2 -12
-10 -22 -17 -22 -8 0 -19 -9 -25 -21 -12 -21 -34 -50 -60 -78 -23 -24 -73
-117 -99 -183 -13 -32 -27 -58 -31 -58 -5 0 -11 -8 -14 -18 -10 -31 -86 -73
-143 -79 -50 -5 -52 -5 -59 21 -3 14 -12 26 -20 26 -20 0 -17 27 4 39 27 15 1
37 -27 21 -27 -14 -34 -10 -56 39 -24 54 -15 91 23 91 15 0 59 7 97 15 90 19
95 19 95 -5 0 -32 -43 -53 -96 -47 -34 3 -47 1 -51 -10 -9 -22 4 -27 70 -29
60 -3 63 -1 95 34 24 26 31 43 27 57 -13 41 -10 59 10 63 11 3 26 13 33 24 9
12 20 17 32 13 14 -4 41 18 109 87 50 51 91 99 91 106 0 18 -30 15 -37 -5 -8
-21 -52 -63 -66 -63 -6 0 -20 -9 -31 -19 -12 -11 -48 -34 -81 -51 -33 -17 -76
-40 -95 -52 -19 -11 -65 -24 -101 -29 -37 -4 -96 -20 -132 -35 -88 -36 -106
-31 -168 46 -63 78 -63 227 -1 283 32 29 121 49 155 36 24 -10 32 -8 68 17 22
16 46 33 53 38 19 13 46 0 46 -21 0 -10 -11 -35 -25 -55 -14 -20 -25 -41 -25
-47 0 -5 -22 -23 -50 -40 -27 -17 -50 -37 -50 -45 0 -19 46 -29 71 -16 14 8
29 8 53 -1 37 -13 70 -6 64 14 -3 6 -18 13 -34 15 -49 6 -51 20 -11 53 21 17
45 49 54 70 10 26 21 39 34 39 11 0 22 7 26 16 3 8 15 20 27 25 32 14 150 99
159 115 4 8 17 14 27 14 26 0 26 26 -1 33 -13 4 -22 0 -26 -11 -9 -23 -23 -32
-54 -32 -15 0 -29 -7 -33 -15 -3 -8 -11 -15 -19 -15 -16 0 -77 -52 -77 -66 0
-12 -58 -45 -63 -36 -10 18 -17 132 -8 132 5 0 28 17 51 38 42 37 42 37 126
34 83 -4 83 -4 90 23 6 24 10 26 43 22 44 -5 69 6 99 44 25 30 24 75 0 51 -22
-22 -48 -14 -48 13 0 18 5 25 20 25 22 0 27 15 8 26 -6 4 -16 0 -23 -9 -7 -10
-26 -17 -43 -17 -24 0 -35 -6 -46 -28 -20 -39 -50 -63 -82 -65 -43 -3 -43 28
-1 66 42 39 55 77 26 77 -11 0 -23 -8 -26 -17 -4 -10 -19 -31 -35 -46 -15 -16
-31 -42 -36 -60 -10 -38 -62 -65 -84 -44 -7 7 -44 28 -83 46 -38 19 -77 38
-85 42 -8 5 -33 18 -55 29 -22 11 -53 31 -69 45 -16 14 -32 25 -36 25 -4 0
-19 10 -33 23 -14 12 -42 33 -62 47 -65 45 -68 50 -49 71 12 13 15 28 10 49
-4 23 -2 32 10 37 17 6 84 -25 97 -44 4 -7 23 -13 41 -13 18 0 45 -9 59 -20
29 -23 87 -27 87 -7 0 37 -97 84 -150 73 -23 -4 -30 -1 -35 14 -4 11 -19 27
-34 34 -49 26 -56 42 -32 72 12 15 21 41 21 59 0 45 37 142 72 186 17 23 28
49 28 68 0 41 24 50 54 22 12 -11 28 -21 34 -21 7 0 12 -11 12 -25 0 -28 21
-33 40 -10 10 12 7 17 -14 26 -33 15 -39 79 -7 79 10 0 23 -6 29 -12z m-531
-30 c18 -24 -4 -75 -34 -81 -36 -7 -43 -2 -43 33 0 48 52 80 77 48z m-1167
-128 c0 -31 -8 -64 -20 -87 -11 -21 -20 -46 -20 -56 0 -10 -9 -30 -20 -44 -11
-14 -20 -36 -20 -48 0 -12 -9 -30 -19 -39 -11 -10 -22 -35 -26 -56 -4 -21 -12
-41 -19 -43 -7 -3 -16 -19 -19 -36 -4 -17 -16 -40 -27 -51 -11 -11 -20 -29
-20 -39 0 -11 -5 -23 -11 -26 -14 -10 -57 -109 -65 -153 -4 -20 -13 -45 -22
-54 -12 -14 -15 -50 -15 -186 0 -160 1 -171 28 -238 15 -38 35 -78 45 -89 23
-26 50 -80 50 -100 0 -22 -18 -18 -31 8 -7 12 -18 26 -25 30 -8 4 -14 14 -14
22 0 8 -9 19 -20 25 -11 6 -20 16 -20 23 0 7 -16 28 -35 46 -19 19 -38 43 -41
54 -3 10 -19 39 -36 63 -24 36 -29 52 -24 77 4 18 10 68 15 112 5 44 16 97 25
117 9 21 16 48 16 61 0 14 7 30 15 37 8 7 17 27 21 46 3 19 10 37 15 40 5 3 9
15 9 28 0 28 28 88 47 99 7 4 13 16 13 26 0 9 11 32 25 51 14 19 25 39 25 45
0 7 9 20 20 30 11 10 20 26 20 35 0 10 9 29 20 43 12 14 30 46 41 71 11 25 23
48 28 50 5 3 12 18 15 33 11 46 50 122 64 123 8 0 12 -16 12 -50z m3376 3 c25
-38 46 -76 88 -158 39 -75 50 -94 78 -137 10 -15 18 -32 18 -39 0 -6 9 -22 20
-36 11 -14 20 -34 20 -45 0 -10 7 -21 15 -24 8 -3 19 -21 25 -39 6 -18 18 -39
26 -45 7 -7 14 -24 14 -39 1 -14 9 -44 20 -66 11 -22 19 -52 20 -66 0 -15 9
-38 20 -51 13 -18 21 -47 24 -94 3 -38 10 -97 17 -132 9 -54 8 -66 -4 -80 -9
-9 -19 -29 -22 -45 -4 -15 -20 -41 -35 -57 -16 -17 -42 -52 -59 -78 -34 -52
-112 -142 -123 -142 -16 0 -7 37 12 55 11 10 20 24 20 30 0 7 9 24 20 37 30
38 57 124 70 220 15 109 -2 284 -31 332 -10 17 -19 44 -19 59 0 16 -9 40 -20
54 -11 14 -20 34 -20 44 0 10 -6 22 -14 26 -7 4 -23 33 -35 63 -12 30 -29 66
-36 80 -8 14 -23 44 -34 66 -11 23 -24 44 -29 48 -5 3 -13 27 -17 53 -4 26
-16 60 -27 76 -34 48 -54 157 -28 157 4 0 16 -12 26 -27z m-2548 -50 c3 -9
-12 -13 -52 -13 -45 0 -57 -4 -66 -20 -12 -22 -30 -27 -30 -7 0 27 21 41 67
48 61 8 75 7 81 -8z m602 3 c0 -7 -6 -19 -14 -25 -8 -7 -17 -39 -21 -72 -4
-34 -13 -73 -21 -87 -8 -15 -14 -37 -14 -49 0 -13 -9 -32 -20 -43 -11 -11 -20
-27 -20 -35 0 -8 -8 -24 -17 -34 -10 -11 -26 -30 -36 -43 -9 -13 -32 -42 -49
-65 -18 -24 -36 -43 -40 -43 -4 0 -17 -9 -28 -20 -11 -11 -31 -20 -45 -20 -14
0 -33 -9 -42 -20 -10 -11 -23 -20 -29 -20 -7 0 -48 -18 -91 -39 -43 -22 -85
-42 -93 -46 -8 -3 -33 -17 -55 -30 -22 -13 -53 -32 -70 -41 -16 -9 -35 -23
-43 -30 -7 -8 -18 -14 -24 -14 -6 0 -17 -8 -24 -17 -11 -15 -16 -16 -33 -5
-27 16 -31 15 -31 -3 0 -8 -9 -19 -20 -25 -15 -8 -19 -17 -15 -31 5 -15 1 -25
-13 -35 -28 -20 -82 -101 -82 -123 0 -18 -18 -31 -42 -31 -7 0 -7 4 0 13 5 6
13 45 17 85 5 52 11 72 21 72 8 0 14 9 14 20 0 13 9 22 25 26 14 3 30 15 36
25 5 11 16 19 24 19 8 0 20 9 27 20 7 11 24 20 38 20 45 0 71 12 81 37 6 15
28 32 61 47 29 13 62 33 72 45 11 11 25 21 33 21 7 0 23 11 35 25 12 14 28 25
35 25 36 0 251 181 253 213 0 8 45 60 93 108 15 15 27 32 27 38 0 6 9 28 20
48 11 21 20 43 20 50 0 7 9 17 20 23 14 8 20 21 20 45 0 32 2 35 30 35 19 0
30 -5 30 -14z m1010 -61 c30 -10 73 -18 95 -17 38 0 39 0 13 -10 -16 -5 -28
-16 -28 -24 0 -18 -20 -18 -56 1 -16 8 -38 15 -49 15 -11 0 -28 9 -38 20 -9
11 -23 20 -31 20 -8 0 -18 5 -22 11 -9 15 41 8 116 -16z m1670 -268 c0 -23 -8
-40 -25 -55 -13 -12 -22 -28 -19 -36 3 -8 -3 -20 -14 -27 -10 -8 -22 -24 -26
-36 -4 -11 -31 -40 -61 -62 -45 -34 -62 -41 -99 -41 -46 0 -68 -13 -40 -24 34
-13 132 -7 138 9 3 8 13 15 22 15 21 0 13 -69 -10 -85 -8 -6 -18 -28 -21 -48
-9 -46 -18 -40 -19 11 -1 33 -4 37 -29 40 -61 7 -75 -43 -25 -90 29 -27 31
-32 18 -51 -7 -12 -16 -35 -20 -52 -9 -44 -34 -39 -38 8 -3 31 1 39 20 46 24
10 20 13 -22 15 -22 1 -25 7 -33 56 -10 69 -45 176 -63 191 -14 12 -19 41 -8
51 8 8 78 -12 86 -25 4 -7 11 -7 22 2 11 9 20 10 35 2 25 -14 76 14 95 51 24
46 -33 108 -70 77 -14 -11 -13 -15 7 -30 14 -10 20 -22 16 -33 -8 -21 -36 -20
-65 2 -35 27 -26 60 25 96 38 27 44 28 72 16 17 -7 37 -24 44 -39 18 -37 41
-33 45 8 3 30 33 70 55 71 4 0 7 -15 7 -33z m-4637 -38 c43 -53 26 -104 -33
-97 -31 4 -39 34 -11 43 25 8 28 33 5 42 -44 17 -89 -50 -65 -95 16 -31 99
-47 160 -31 78 20 105 -8 61 -63 -10 -14 -24 -43 -29 -64 -6 -22 -21 -75 -35
-120 -16 -53 -23 -96 -20 -125 2 -24 1 -38 -2 -31 -3 7 -17 17 -30 22 -17 7
-24 17 -24 38 0 15 -9 35 -20 45 -23 20 -26 47 -5 47 8 0 17 -11 21 -26 4 -16
12 -24 23 -22 21 4 28 92 9 115 -35 43 -87 32 -80 -16 3 -24 1 -31 -13 -31
-14 0 -16 6 -11 35 6 29 4 37 -11 42 -23 9 -33 23 -33 51 0 27 22 29 41 4 18
-24 154 -17 154 8 0 12 -10 14 -46 12 -36 -3 -51 1 -65 16 -11 11 -29 23 -42
27 -14 4 -32 24 -44 50 -20 42 -20 43 -3 90 11 26 28 51 39 56 32 13 89 2 109
-22z m1873 -74 c4 -8 0 -23 -7 -32 -13 -15 -11 -16 13 -10 26 7 26 6 18 -23
-12 -43 -20 -51 -40 -45 -12 4 -19 -1 -23 -14 -5 -19 -1 -20 38 -15 41 6 42 6
49 -26 11 -59 6 -262 -8 -319 -8 -31 -22 -85 -31 -120 -9 -36 -21 -116 -26
-179 -5 -62 -19 -141 -29 -175 -11 -34 -20 -70 -20 -80 0 -9 -9 -34 -20 -54
-11 -21 -20 -44 -20 -51 0 -7 -9 -30 -20 -52 -11 -22 -20 -48 -20 -58 0 -10
-8 -26 -17 -35 -10 -9 -29 -37 -42 -64 -13 -26 -28 -55 -32 -63 -5 -8 -15 -29
-23 -46 -8 -17 -19 -34 -24 -38 -6 -3 -14 -21 -18 -39 -3 -17 -15 -43 -25 -56
-11 -13 -19 -28 -19 -34 0 -6 -6 -18 -14 -26 -7 -9 -21 -38 -31 -66 -10 -27
-22 -54 -27 -59 -4 -6 -8 -27 -8 -47 0 -21 -4 -41 -10 -44 -5 -3 -10 -15 -10
-26 0 -23 -46 -73 -59 -65 -5 4 -7 15 -4 25 3 11 -2 30 -11 43 -9 12 -16 28
-16 35 0 7 -11 24 -24 39 -56 62 -55 60 -35 73 14 8 19 23 19 54 0 32 10 57
40 105 22 34 42 73 45 85 4 13 22 41 41 62 19 21 34 43 34 48 0 5 18 31 41 58
24 29 39 55 35 64 -9 25 -23 17 -57 -30 -18 -25 -36 -45 -39 -45 -4 0 -23 -24
-41 -54 -19 -30 -41 -57 -49 -59 -8 -2 -28 -30 -45 -63 -16 -32 -32 -61 -36
-64 -3 -3 -12 -18 -20 -35 -19 -41 -45 -40 -41 2 2 17 -1 34 -7 38 -7 4 -11
-7 -11 -29 0 -32 -3 -36 -25 -36 -18 0 -26 7 -31 24 -7 28 11 66 31 66 19 0
29 38 15 55 -14 17 13 75 35 75 8 0 18 6 22 14 4 8 34 42 66 76 46 49 61 59
72 50 16 -13 75 24 75 47 0 7 22 38 50 68 114 126 221 348 241 500 5 39 13 95
18 125 15 87 12 299 -4 345 -27 76 -21 110 33 165 48 50 78 62 88 35z m139
-232 c8 -58 26 -88 64 -108 59 -30 87 15 52 84 -20 39 -21 41 -3 41 18 0 42
-37 42 -64 0 -8 6 -16 14 -19 7 -3 16 -21 20 -40 4 -23 13 -37 26 -40 22 -6
27 -32 9 -43 -7 -4 -20 4 -30 17 -19 24 -19 24 -38 0 -14 -19 -22 -22 -36 -13
-13 7 -26 6 -43 -1 -21 -10 -27 -8 -42 11 -24 29 -30 28 -30 -7 0 -17 -4 -32
-9 -35 -8 -5 -21 131 -21 221 0 58 16 55 25 -4z m980 -73 c4 -6 4 -18 1 -27
-7 -18 -36 0 -36 23 0 16 26 19 35 4z m14 -304 c5 -13 17 -26 25 -29 9 -4 20
-15 24 -24 17 -41 48 -83 60 -83 7 0 18 -11 24 -25 7 -16 19 -25 35 -25 13 0
26 -7 29 -15 4 -8 14 -15 24 -15 10 0 23 -7 30 -15 6 -8 22 -17 33 -21 12 -4
38 -24 58 -45 20 -22 41 -39 48 -39 17 0 30 -42 20 -62 -5 -9 -9 -25 -9 -36 0
-10 -9 -27 -20 -37 -11 -10 -20 -24 -20 -31 0 -7 -9 -18 -20 -24 -16 -9 -20
-21 -20 -65 0 -65 -8 -68 -44 -16 -15 22 -34 42 -41 44 -7 3 -27 28 -45 55
-19 30 -42 53 -56 56 -13 4 -24 13 -24 21 0 8 -9 24 -21 36 -11 11 -36 52 -56
90 -19 38 -39 72 -44 75 -12 7 -12 97 0 110 8 8 2 40 -24 122 -10 31 22 30 34
-2z m-224 -434 c1 -43 6 -99 13 -127 7 -27 15 -67 19 -88 7 -44 18 -54 39 -36
16 13 34 -1 34 -28 0 -7 9 -17 20 -23 11 -6 23 -23 26 -38 4 -15 22 -43 41
-62 18 -19 33 -38 33 -42 0 -4 15 -25 33 -45 72 -81 88 -133 41 -133 -25 0
-104 -42 -120 -63 -12 -17 -17 -19 -21 -8 -3 8 -21 30 -39 50 -34 38 -32 39
-49 -15 -7 -20 -31 -3 -41 29 -4 12 -20 38 -35 57 -16 20 -33 56 -38 83 -4 26
-13 53 -19 60 -7 8 -16 47 -22 87 -10 67 -9 76 12 114 18 34 21 55 20 131 -1
92 11 165 31 177 19 11 22 0 22 -80z m-832 -5 c23 -9 33 -35 18 -50 -15 -15
-36 8 -45 48 -4 17 -3 25 1 19 4 -6 16 -13 26 -17z m231 -111 c4 -21 21 -46
46 -69 43 -38 45 -43 30 -81 -6 -18 -19 -27 -45 -32 -38 -7 -60 3 -108 52 -45
45 -50 61 -29 82 11 11 22 31 26 45 3 14 14 28 24 30 41 11 50 7 56 -27z
m-166 -133 c15 -9 43 -33 62 -54 19 -20 47 -39 63 -43 23 -5 27 -11 27 -41 0
-19 -6 -38 -13 -42 -14 -8 -31 -36 -61 -99 -8 -17 -22 -36 -30 -44 -9 -7 -16
-18 -16 -25 0 -6 -9 -20 -20 -30 -11 -10 -22 -27 -26 -39 -4 -11 -22 -44 -40
-72 -19 -28 -34 -62 -34 -76 0 -14 -6 -31 -14 -37 -8 -7 -17 -27 -20 -46 -4
-19 -10 -36 -14 -39 -13 -8 -62 6 -62 19 0 6 -9 20 -21 31 -45 40 -61 90 -53
162 8 78 21 108 78 176 38 47 41 53 37 100 -12 138 -3 168 58 200 36 19 67 19
99 -1z m599 -246 c-5 -39 -3 -59 8 -74 14 -19 13 -25 -2 -57 -21 -46 -37 -35
-28 21 4 25 1 58 -5 79 -14 42 -6 84 17 84 13 0 15 -8 10 -53z m-490 -174 c4
-12 -36 -25 -50 -16 -12 7 23 35 37 30 5 -2 11 -8 13 -14z m-457 -8 c0 -16
-35 -21 -44 -6 -8 12 4 21 26 21 10 0 18 -7 18 -15z m500 -92 c14 -3 36 -14
49 -24 13 -11 32 -19 43 -19 30 0 31 -26 3 -74 -31 -53 -49 -57 -110 -26 -22
11 -47 20 -57 20 -40 0 -50 72 -17 114 16 21 27 26 43 21 11 -4 32 -9 46 -12z
m-85 -173 c17 -19 47 -30 119 -45 28 -6 28 -6 22 -68 -4 -34 -15 -71 -24 -82
-49 -58 -46 -113 11 -173 27 -28 31 -40 33 -92 1 -60 1 -60 -27 -60 -22 0 -30
6 -35 24 -3 14 -12 27 -20 30 -9 3 -14 21 -14 49 0 53 -49 134 -86 143 -14 4
-30 14 -37 24 -6 9 -29 22 -49 29 -42 14 -78 53 -78 85 0 12 27 51 61 89 66
72 92 82 124 47z"/>
<path d="M2899 6144 c-15 -7 -29 -20 -33 -29 -7 -19 -29 -19 -66 0 -38 20 -62
10 -58 -24 2 -21 9 -27 33 -29 17 -2 38 -11 48 -19 18 -17 20 -16 93 55 41 39
29 70 -17 46z"/>
<path d="M3471 6208 c-5 -13 -10 -32 -12 -43 -4 -17 -12 -20 -53 -20 -60 0
-72 -19 -24 -40 19 -7 41 -21 48 -30 7 -9 20 -13 28 -10 8 3 30 0 48 -7 30
-11 36 -10 56 9 13 11 33 26 46 32 12 6 22 21 22 31 0 17 -7 20 -48 20 -48 0
-49 1 -65 40 -17 45 -33 51 -46 18z"/>
<path d="M3785 5716 c-19 -41 -11 -61 21 -54 24 4 30 46 11 72 -14 19 -15 18
-32 -18z"/>
<path d="M4835 5493 c-11 -3 -25 -9 -30 -13 -6 -5 -39 -12 -75 -15 -36 -4 -78
-14 -95 -22 -21 -11 -71 -16 -173 -18 -149 -3 -158 -5 -149 -29 7 -18 244 -12
297 9 19 8 65 17 102 20 36 4 74 13 85 20 10 8 34 15 53 15 41 0 65 13 56 29
-7 11 -35 13 -71 4z"/>
<path d="M4775 5374 c-101 -30 -143 -35 -322 -36 -147 -1 -183 -4 -183 -15 0
-8 8 -16 18 -20 9 -3 25 -13 34 -20 9 -8 33 -18 52 -23 32 -7 36 -6 36 12 0
17 4 19 28 14 15 -4 60 -13 101 -21 54 -11 85 -23 112 -45 21 -16 42 -30 46
-30 5 0 20 -14 35 -30 36 -41 58 -31 58 25 0 26 6 47 15 55 8 7 15 19 15 27 0
8 16 34 36 58 53 65 27 81 -81 49z m15 -79 c0 -64 -63 -98 -94 -50 -9 14 -23
25 -31 25 -37 0 -12 28 30 34 24 4 47 11 50 17 4 5 15 9 26 9 15 0 19 -7 19
-35z"/>
<path d="M4440 5205 c0 -9 9 -15 24 -15 30 0 42 15 20 24 -27 10 -44 7 -44 -9z"/>
<path d="M4710 5089 c0 -7 8 -18 18 -25 14 -11 15 -16 5 -33 -17 -27 8 -75 48
-95 29 -14 30 -14 24 2 -4 9 -13 37 -19 62 -6 25 -19 57 -30 73 -18 27 -46 37
-46 16z"/>
<path d="M5013 4678 c-17 -8 -23 -20 -23 -45 0 -36 10 -42 30 -18 7 8 22 15
35 15 33 0 37 10 12 36 -25 27 -24 27 -54 12z"/>
<path d="M5030 4556 c0 -14 5 -28 11 -32 17 -10 32 12 24 35 -9 29 -35 27 -35
-3z"/>
<path d="M4933 2978 c-77 -121 -96 -180 -64 -197 15 -8 22 -8 28 1 10 17 38
67 55 98 7 14 21 33 31 42 19 20 22 50 7 79 -16 28 -27 24 -57 -23z"/>
<path d="M4996 2874 c-10 -27 -7 -56 7 -52 14 5 23 68 9 68 -6 0 -13 -7 -16
-16z"/>
<path d="M4747 2537 c-3 -8 -1 -20 4 -28 7 -12 11 -11 25 3 17 17 12 38 -11
38 -7 0 -15 -6 -18 -13z"/>
<path d="M4660 2423 c-27 -11 -80 -55 -80 -67 0 -18 -61 -73 -93 -85 -34 -13
-33 -44 1 -49 26 -4 84 48 96 85 4 12 19 26 34 32 76 33 116 112 42 84z"/>
<path d="M4899 2377 c-40 -49 -62 -96 -50 -110 5 -7 9 -34 9 -60 0 -45 4 -52
49 -94 68 -63 90 -72 162 -69 47 1 65 6 72 19 16 29 1 37 -67 37 -107 0 -158
43 -168 143 -9 77 -4 92 47 148 16 18 16 19 -5 18 -13 0 -35 -15 -49 -32z"/>
<path d="M5013 2382 c-53 -49 -56 -127 -5 -175 77 -72 210 -30 227 73 12 70
-35 80 -50 11 -7 -33 -54 -71 -88 -71 -38 0 -80 52 -72 89 6 27 11 31 41 31
37 0 45 -18 19 -40 -21 -17 -4 -34 24 -25 55 17 46 91 -14 119 -44 21 -45 21
-82 -12z"/>
<path d="M5192 2075 c2 -86 -55 -153 -91 -106 -13 17 -23 22 -39 16 -48 -15 3
-85 62 -85 58 0 117 76 103 132 -3 12 -1 30 4 40 14 26 2 58 -21 58 -17 0 -19
-7 -18 -55z"/>
<path d="M3160 4341 c-19 -15 -51 -31 -70 -35 -45 -8 -56 -16 -64 -44 -10 -30
18 -40 54 -18 16 9 35 16 44 16 26 0 86 60 86 86 0 31 -8 30 -50 -5z"/>
<path d="M2264 4139 c-10 -17 23 -46 38 -31 8 8 8 15 -2 27 -15 18 -26 19 -36
4z"/>
<path d="M2230 4035 c0 -27 9 -32 28 -13 18 18 14 38 -8 38 -15 0 -20 -7 -20
-25z"/>
<path d="M2511 4020 c-14 -8 -8 -40 7 -40 5 0 15 6 21 14 15 17 -8 39 -28 26z"/>
<path d="M2550 3600 c0 -21 16 -26 39 -11 18 11 5 31 -20 31 -12 0 -19 -7 -19
-20z"/>
<path d="M1987 3013 c-16 -15 -7 -78 13 -91 11 -7 20 -18 20 -26 0 -7 9 -23
20 -36 11 -13 20 -28 20 -35 0 -7 9 -20 20 -30 11 -10 20 -22 20 -27 0 -14 93
-128 105 -128 16 0 35 21 35 40 0 9 -18 36 -40 61 -22 24 -40 50 -40 57 0 6
-11 22 -25 34 -14 12 -25 27 -25 33 0 7 -9 22 -20 35 -11 13 -20 26 -20 31 0
4 -12 26 -27 48 -25 39 -42 49 -56 34z"/>
<path d="M1741 2913 c-6 -15 -16 -35 -22 -44 -13 -17 -6 -49 10 -49 5 0 13 10
17 22 4 13 13 28 21 34 17 11 14 55 -3 61 -7 2 -17 -9 -23 -24z"/>
<path d="M1900 2805 c0 -13 10 -33 21 -44 12 -11 27 -29 33 -40 62 -110 118
-181 145 -181 22 0 7 64 -27 114 -20 29 -27 47 -20 54 13 13 6 64 -9 69 -7 3
-13 -8 -15 -24 -4 -37 -30 -41 -46 -6 -27 61 -44 83 -63 83 -14 0 -19 -7 -19
-25z"/>
<path d="M2145 2620 c-8 -14 3 -30 21 -30 8 0 14 9 14 20 0 21 -24 28 -35 10z"/>
<path d="M2024 2409 c-4 -7 3 -19 14 -28 58 -44 54 -168 -7 -230 -42 -43 -63
-51 -135 -51 -59 0 -66 -2 -66 -20 0 -26 29 -40 84 -40 53 0 71 9 142 67 59
49 75 93 51 140 -8 16 -12 44 -10 65 4 27 0 41 -14 55 -11 11 -22 27 -26 36
-7 20 -23 22 -33 6z"/>
<path d="M2390 2335 c-10 -12 -2 -26 51 -80 35 -36 71 -67 80 -70 9 -3 19 -15
22 -26 4 -15 12 -20 29 -17 33 4 35 36 4 48 -14 5 -26 14 -26 18 0 5 -19 22
-42 38 -62 42 -88 66 -88 80 0 20 -17 25 -30 9z"/>
<path d="M1749 2133 c-10 -118 -8 -132 33 -183 35 -44 44 -50 78 -50 30 0 43
6 59 26 40 51 12 83 -39 45 -37 -27 -38 -27 -68 6 -20 22 -26 41 -30 95 -3 48
-9 68 -18 68 -8 0 -14 -3 -15 -7z"/>
<path d="M2779 2122 c-25 -29 -31 -41 -24 -52 7 -11 65 44 65 61 0 15 -25 10
-41 -9z"/>
<path d="M2349 1928 c-7 -13 -19 -28 -28 -35 -13 -10 -14 -14 -3 -25 12 -11
17 -9 29 10 9 12 21 22 28 22 12 0 25 21 25 41 0 19 -40 8 -51 -13z"/>
<path d="M2430 1772 c0 -7 18 -19 63 -40 5 -2 7 6 5 19 -2 19 -10 25 -35 27
-18 2 -33 -1 -33 -6z"/>
<path d="M2497 5508 c-4 -15 1 -30 14 -44 20 -21 20 -21 -46 -28 -41 -4 -73
-3 -86 5 -11 6 -55 13 -97 16 -43 3 -84 11 -92 19 -21 17 -151 23 -157 7 -3
-9 8 -13 36 -13 22 0 62 -9 88 -19 27 -10 79 -21 115 -24 38 -4 79 -14 93 -23
34 -22 174 -26 198 -5 21 16 22 54 3 70 -8 7 -17 23 -20 36 -8 32 -41 33 -49
3z"/>
<path d="M2100 5374 c0 -15 24 -51 66 -98 10 -12 18 -40 20 -70 1 -28 3 -54 3
-58 2 -14 38 -8 62 10 13 10 32 21 42 25 9 3 17 11 17 16 0 18 79 52 151 66
69 13 70 13 86 -11 16 -26 29 -29 53 -14 12 8 12 11 -3 28 -9 10 -17 24 -17
30 0 6 -12 20 -26 31 -21 16 -30 18 -52 10 -32 -12 -271 14 -335 37 -51 18
-67 18 -67 -2z m123 -44 c4 -14 17 -21 56 -26 66 -9 69 -16 23 -48 -46 -31
-63 -33 -80 -6 -7 11 -19 20 -28 20 -11 0 -14 5 -10 16 3 9 9 27 12 40 7 29
20 31 27 4z"/>
<path d="M2237 5104 c-14 -15 -6 -34 14 -34 14 0 19 5 17 17 -3 18 -20 27 -31
17z"/>
<path d="M2200 5040 c0 -4 6 -11 13 -14 8 -4 5 -10 -10 -22 -24 -17 -33 -74
-12 -74 13 0 69 61 69 75 0 5 -14 18 -30 27 -17 9 -30 13 -30 8z"/>
<path d="M1940 4681 c0 -5 -13 -14 -30 -21 -16 -7 -30 -16 -30 -21 0 -17 67
-9 83 9 23 25 21 42 -3 42 -11 0 -20 -4 -20 -9z"/>
<path d="M1923 4573 c-12 -4 -19 -53 -8 -53 14 0 64 44 59 52 -6 9 -31 10 -51
1z"/>
<path d="M2055 5760 c-3 -5 -28 -22 -55 -37 -74 -41 -66 -74 12 -52 24 7 49
11 56 10 17 -3 52 27 52 44 0 28 -52 56 -65 35z"/>
<path d="M4830 5815 c-15 -18 -5 -35 21 -35 24 0 37 29 18 41 -19 12 -25 11
-39 -6z"/>
<path d="M4877 5753 c-4 -3 -7 -17 -7 -30 0 -40 125 -88 150 -58 11 14 9 20
-17 43 -36 33 -111 60 -126 45z"/>
<path d="M3261 5731 c-12 -8 -12 -16 1 -58 13 -42 19 -48 45 -51 23 -2 36 3
51 23 24 31 19 55 -12 55 -12 0 -27 9 -34 20 -13 22 -29 25 -51 11z"/>
<path d="M3208 5473 c-31 -8 -22 -49 12 -63 28 -12 33 -10 55 10 14 13 25 29
25 36 0 19 -49 28 -92 17z"/>
<path d="M3952 5188 c-7 -7 -12 -18 -12 -25 0 -18 29 -16 37 3 8 21 -10 37
-25 22z"/>
<path d="M3091 5021 c-19 -12 -5 -49 27 -65 15 -8 40 -28 56 -45 31 -32 46
-32 46 1 0 20 -87 118 -105 118 -5 0 -16 -4 -24 -9z"/>
<path d="M4220 5019 c-14 -24 -4 -75 15 -83 7 -2 26 -1 41 3 35 9 55 61 34 86
-19 23 -77 19 -90 -6z"/>
<path d="M4435 4706 c-32 -31 -36 -39 -33 -78 3 -43 3 -43 53 -43 47 0 51 2
69 35 19 36 19 36 -9 78 -33 51 -34 51 -80 8z"/>
<path d="M4452 4368 c5 -15 48 -18 48 -3 0 6 -11 11 -26 13 -18 3 -25 0 -22
-10z"/>
<path d="M4556 4321 c-8 -12 21 -34 34 -26 17 11 11 35 -9 35 -11 0 -22 -4
-25 -9z"/>
<path d="M4834 4095 c-7 -18 2 -45 15 -45 12 0 24 37 16 50 -9 15 -25 12 -31
-5z"/>
<path d="M4075 3761 c-3 -11 -2 -28 4 -38 8 -16 10 -14 16 10 9 34 -10 60 -20
28z"/>
<path d="M5194 2899 c-4 -7 2 -19 13 -28 11 -9 23 -24 26 -33 10 -28 27 -21
27 11 0 40 -49 77 -66 50z"/>
<path d="M5187 2793 c-15 -14 -6 -45 14 -50 14 -4 19 -12 17 -27 -2 -17 -9
-20 -35 -18 -44 4 -50 -14 -15 -49 39 -40 60 -35 90 24 25 47 25 47 -2 87 -24
37 -52 50 -69 33z"/>
<path d="M5514 4815 c-4 -8 -3 -22 0 -31 6 -15 8 -15 26 1 11 10 20 24 20 32
0 18 -39 17 -46 -2z"/>
<path d="M1420 4826 c0 -25 12 -46 25 -46 21 0 27 17 15 40 -12 23 -40 27 -40
6z"/>
<path d="M3467 4813 c-10 -3 -16 -10 -14 -16 5 -17 52 -15 52 2 0 16 -12 21
-38 14z"/>
<path d="M3615 4650 c-4 -7 -3 -16 3 -22 14 -14 45 -2 40 15 -6 16 -34 21 -43
7z"/>
<path d="M5338 3863 c-10 -2 -21 -15 -24 -29 -3 -13 -10 -24 -14 -24 -5 0 -16
-7 -24 -16 -20 -19 -21 -64 -2 -64 22 0 82 28 96 44 7 9 19 16 27 16 25 0 26
30 3 56 -23 24 -30 26 -62 17z"/>
<path d="M1592 3858 c-31 -31 9 -108 58 -108 6 0 22 -12 35 -26 27 -29 55 -26
55 6 0 11 -4 20 -9 20 -5 0 -14 14 -21 30 -7 17 -18 34 -24 38 -6 4 -16 16
-22 27 -13 24 -54 31 -72 13z"/>
<path d="M3681 4194 c-17 -14 -31 -31 -31 -38 0 -7 -17 -32 -37 -56 -35 -40
-37 -47 -39 -116 -2 -66 0 -76 18 -85 29 -16 38 3 38 83 0 58 3 69 21 79 17 9
20 17 15 44 -6 28 -3 35 14 40 11 3 20 13 20 21 0 8 7 17 15 20 16 7 21 34 6
34 -5 0 -23 -12 -40 -26z"/>
<path d="M3775 3913 c-19 -45 -14 -63 19 -63 32 0 50 31 41 71 -10 43 -41 39
-60 -8z"/>
<path d="M1180 3764 c-16 -40 -9 -56 29 -69 38 -13 25 -25 -28 -25 -35 0 -71
-26 -71 -51 0 -23 -1 -23 36 -5 16 8 53 17 81 21 29 4 55 11 59 16 3 5 18 9
33 9 50 0 91 12 91 27 0 18 -22 26 -83 27 -48 1 -51 2 -62 36 -16 48 -69 57
-85 14z"/>
<path d="M1482 3263 c4 -35 58 -49 58 -16 0 24 -19 43 -43 43 -14 0 -18 -6
-15 -27z"/>
<path d="M1554 3206 c-7 -20 2 -46 16 -46 5 0 10 9 10 20 0 11 0 23 1 27 1 15
-21 14 -27 -1z"/>
<path d="M5404 3326 c-18 -14 -18 -15 -1 -21 11 -5 17 -18 17 -36 0 -51 64
-68 75 -19 5 25 1 35 -23 60 -35 34 -41 36 -68 16z"/>
<path d="M3087 3562 c-35 -36 -35 -62 -2 -62 17 0 29 9 40 30 32 61 9 81 -38
32z"/>
<path d="M3390 3400 c0 -16 51 -33 63 -21 5 5 6 14 3 20 -9 14 -66 14 -66 1z"/>
<path d="M3603 3303 c-32 -12 -12 -33 31 -33 43 0 71 16 44 24 -30 10 -64 14
-75 9z"/>
<path d="M3498 3266 c-16 -5 -28 -16 -28 -23 0 -16 22 -17 38 -1 9 9 15 9 24
0 19 -19 48 -15 48 7 0 23 -42 31 -82 17z"/>
<path d="M3710 3140 c-14 -4 -41 -5 -61 -3 -25 4 -45 -1 -63 -12 -18 -12 -36
-15 -60 -11 -18 4 -46 2 -61 -4 -27 -10 -27 -12 -11 -28 23 -24 210 -21 237 4
12 11 29 15 51 11 18 -2 44 0 58 5 25 10 25 10 1 29 -24 20 -49 22 -91 9z"/>
<path d="M3860 3092 c0 -11 -7 -22 -15 -26 -8 -3 -15 -12 -15 -21 0 -22 18
-19 25 5 5 15 15 20 40 20 31 0 54 14 42 26 -2 3 -21 8 -41 11 -31 5 -36 3
-36 -15z"/>
<path d="M3272 2928 c3 -7 19 -14 37 -16 24 -3 32 0 29 10 -3 7 -19 14 -37 16
-24 3 -32 0 -29 -10z"/>
<path d="M3866 2931 c-10 -15 13 -63 27 -58 11 4 12 24 2 55 -5 14 -21 16 -29
3z"/>
<path d="M3487 2833 c-17 -16 -4 -31 30 -38 20 -4 58 -18 85 -31 61 -31 118
-31 118 0 0 32 -209 94 -233 69z"/>
<path d="M4104 2575 c-7 -18 3 -35 21 -35 18 0 26 15 19 34 -8 20 -33 21 -40
1z"/>
<path d="M4081 2341 c-11 -21 -27 -41 -36 -44 -15 -7 -21 -37 -7 -37 19 0 102
90 102 111 0 26 -42 5 -59 -30z"/>
<path d="M3947 2331 c-15 -10 -35 -28 -43 -40 -8 -11 -20 -21 -26 -21 -12 0
-68 -59 -68 -72 0 -4 -12 -8 -26 -8 -17 0 -28 -6 -31 -20 -4 -15 -14 -20 -42
-20 -25 0 -40 -6 -49 -20 -9 -14 -23 -20 -51 -20 -23 0 -48 -8 -64 -20 -16
-13 -28 -16 -32 -10 -3 5 -18 10 -33 10 -15 0 -40 7 -56 15 -37 19 -38 19 -34
-7 2 -12 14 -28 28 -35 30 -15 96 -17 105 -3 3 6 36 10 72 10 50 0 71 5 90 20
14 11 32 20 39 20 7 0 18 9 24 20 7 13 21 20 40 20 17 0 30 4 30 8 0 4 22 25
50 46 27 20 67 56 90 78 59 59 50 91 -13 49z"/>
<path d="M3814 2315 c-12 -13 -24 -31 -27 -39 -4 -9 -16 -16 -27 -16 -11 0
-20 -7 -20 -15 0 -8 7 -15 16 -15 19 0 64 40 64 57 0 7 9 17 20 23 11 6 20 15
20 20 0 18 -25 10 -46 -15z"/>
<path d="M3378 2253 c-29 -7 -20 -23 13 -23 19 0 29 4 27 12 -5 14 -17 17 -40
11z"/>
<path d="M3316 2214 c-21 -20 -21 -64 -1 -64 9 0 20 12 25 26 20 51 7 70 -24
38z"/>
<path d="M3657 2213 c-15 -14 -6 -33 17 -33 25 0 51 22 39 33 -8 9 -48 9 -56
0z"/>
<path d="M3573 1743 c-24 -5 -33 -33 -10 -33 29 0 57 13 57 26 0 14 -6 15 -47
7z"/>
<path d="M3583 1494 c-7 -3 -9 -18 -6 -40 4 -22 2 -34 -6 -34 -29 0 -45 -66
-33 -138 14 -85 36 -125 78 -144 36 -17 36 -18 2 61 -11 24 -17 53 -14 64 3
11 0 29 -5 39 -8 15 -7 24 4 36 18 21 28 108 16 139 -9 23 -14 26 -36 17z"/>
<path d="M3726 1435 c-27 -25 -26 -20 -31 -178 -2 -60 6 -77 29 -58 10 8 15
45 18 117 3 86 7 108 21 119 9 7 17 15 17 19 0 14 -29 4 -54 -19z"/>
<path d="M4310 2126 c0 -14 5 -28 10 -31 6 -4 17 -22 25 -41 8 -19 19 -34 24
-34 6 0 11 -5 11 -11 0 -26 194 -229 219 -229 16 0 14 30 -3 36 -8 3 -17 16
-20 28 -3 13 -29 45 -58 72 -55 51 -138 148 -138 161 -1 9 -57 73 -65 73 -3 0
-5 -11 -5 -24z"/>
<path d="M4111 1546 c-15 -18 -5 -43 20 -49 13 -4 19 -14 19 -34 0 -16 5 -34
12 -41 7 -7 17 -26 22 -44 16 -46 36 -48 36 -4 0 25 -6 38 -20 46 -11 6 -20
17 -20 25 0 20 -42 115 -51 115 -3 0 -12 -6 -18 -14z"/>
<path d="M4222 1298 c2 -25 8 -34 26 -36 24 -4 29 16 12 49 -18 32 -42 24 -38
-13z"/>
<path d="M3257 1262 c-18 -20 -22 -42 -9 -42 12 0 42 34 42 48 0 17 -15 15
-33 -6z"/>
<path d="M3315 811 c-8 -15 3 -31 21 -31 9 0 14 7 12 17 -4 20 -24 28 -33 14z"/>
<path d="M1264 5735 c-7 -18 3 -35 22 -35 8 0 14 10 14 25 0 27 -27 35 -36 10z"/>
<path d="M6314 4545 c-8 -20 3 -48 16 -40 13 8 13 55 0 55 -6 0 -13 -7 -16
-15z"/>
<path d="M5386 1494 c-7 -19 1 -34 19 -34 8 0 16 4 19 9 9 14 -4 41 -19 41 -7
0 -16 -7 -19 -16z"/>
<path d="M4594 835 c-11 -27 4 -45 36 -45 38 0 38 10 0 39 -26 19 -31 20 -36
6z"/>
<path d="M4732 813 c4 -22 43 -25 43 -3 0 8 -11 16 -23 18 -19 3 -23 0 -20
-15z"/>
<path d="M4300 811 c0 -19 27 -32 39 -18 6 8 8 17 4 20 -9 10 -43 8 -43 -2z"/>
</g>
</svg>
